<svg width="128" height="128" viewBox="0 0 128 128" fill="none" xmlns="http://www.w3.org/2000/svg">
<path d="M94.5557 67.51C86.4757 59.88 72.7357 53.52 63.6457 49.31C62.1057 48.6 60.7157 47.96 59.5357 47.39C56.1057 45.74 51.4157 41.17 53.4357 35.92C54.7957 32.37 58.2457 30.58 63.7057 30.58C65.4557 30.58 67.3757 30.78 69.4257 31.16C76.5457 32.49 81.9457 35.15 85.0057 36.66C85.3857 36.85 85.8257 36.87 86.2257 36.73C86.6157 36.58 86.9457 36.28 87.1157 35.89L94.1257 20.08C94.4357 19.39 94.1957 18.57 93.5557 18.15C88.6157 14.87 76.2857 10 62.5857 10C60.6057 10 58.6357 10.1 56.7157 10.3C45.7957 11.42 34.8557 14.33 28.7957 27.94C25.0157 36.41 25.0257 45.95 28.8057 52.83C32.8457 60.34 39.4657 63.7 47.8457 67.94L48.9257 68.49C54.9757 71.51 62.2257 74.87 66.9957 77.08C74.0457 80.48 76.6557 86.52 75.0357 90.16C72.4257 96.03 66.6557 97.32 56.6757 94.49C47.8657 92.1 39.7357 85.35 37.4657 83.34C37.1257 83.04 36.6757 82.9 36.2157 82.96C35.7657 83.02 35.3657 83.28 35.1157 83.65L24.2557 100.3C23.8457 100.93 23.9357 101.76 24.4757 102.28C30.1057 107.71 34.6957 110.87 42.6457 114.78C47.9957 117.41 55.8257 118.99 63.5957 118.99C71.7157 118.99 91.5457 117.11 100.246 99.73C105.796 88.61 103.726 76.89 94.5557 67.51Z" fill="#008E07" stroke="#FFF778" stroke-width="10"/>
</svg>
