<?xml version="1.0" encoding="UTF-8"?>
<svg version="1.1" xmlns="http://www.w3.org/2000/svg" width="1024" height="1024">
<path d="M0 0 C337.92 0 675.84 0 1024 0 C1024 337.92 1024 675.84 1024 1024 C686.08 1024 348.16 1024 0 1024 C0 686.08 0 348.16 0 0 Z " fill="#FEFEFE" transform="translate(0,0)"/>
<path d="M0 0 C2.31047028 0.00854103 4.61848036 -0.02044544 6.92871094 -0.05200195 C17.03328677 -0.09971862 25.68816522 1.31410053 35.31152344 4.44604492 C36.11734863 4.69749268 36.92317383 4.94894043 37.75341797 5.20800781 C53.46139732 10.31244015 66.17330788 18.36259844 78.31152344 29.44604492 C78.98828125 30.0519043 79.66503906 30.65776367 80.36230469 31.28198242 C93.39902001 43.56946123 101.87526936 59.59365729 107.31152344 76.44604492 C107.55708984 77.18822266 107.80265625 77.93040039 108.05566406 78.69506836 C111.39719973 89.10320253 112.76305406 99.00916484 112.81152344 109.94604492 C112.81780762 111.00742676 112.8240918 112.06880859 112.83056641 113.16235352 C112.7107869 120.61077804 111.41642493 127.31385242 109.31152344 134.44604492 C108.94414063 135.69772461 108.57675781 136.9494043 108.19824219 138.23901367 C103.87271184 150.4829416 97.33238349 161.41853849 90.8984375 172.6574707 C80.21025739 191.43906965 73.04998407 210.71238746 78.49902344 232.50854492 C79.06516717 234.16784176 79.66981093 235.81448439 80.31152344 237.44604492 C80.80458984 238.8459668 80.80458984 238.8459668 81.30761719 240.27416992 C85.90246629 252.42110665 93.63016076 262.61384696 101.31152344 272.94604492 C121.28907801 299.8318256 130.65591171 325.32369629 127.02734375 359.09057617 C126.29067381 363.41184649 124.93027406 367.38488528 123.31152344 371.44604492 C122.78511345 372.85866814 122.25909518 374.27143737 121.73339844 375.68432617 C116.78257013 388.60391457 110.36034067 399.92573779 101.31152344 410.44604492 C100.6115625 411.2684668 99.91160156 412.09088867 99.19042969 412.93823242 C77.45063103 437.81693249 47.12284428 454.68245305 14.99902344 461.94604492 C14.15791016 462.14584961 13.31679688 462.3456543 12.45019531 462.55151367 C-5.24369217 466.5862854 -22.56662796 468.02439562 -40.68847656 467.94604492 C-41.76053345 467.94461487 -42.83259033 467.94318481 -43.93713379 467.94171143 C-61.03236301 467.88539968 -77.08644644 466.79419567 -93.68847656 462.44604492 C-94.66075195 462.19483887 -95.63302734 461.94363281 -96.63476562 461.68481445 C-101.93493615 460.28717285 -107.18501656 458.76320445 -112.41992188 457.1394043 C-115.90819765 456.07325027 -119.42349059 455.10718598 -122.93847656 454.13354492 C-128.56652534 452.56799614 -128.56652534 452.56799614 -129.68847656 451.44604492 C-129.77547998 449.8113161 -129.79548719 448.17290437 -129.78613281 446.53588867 C-129.78291016 445.5465332 -129.7796875 444.55717773 -129.77636719 443.5378418 C-129.76798828 442.49692383 -129.75960938 441.45600586 -129.75097656 440.38354492 C-129.74646484 439.33875977 -129.74195313 438.29397461 -129.73730469 437.2175293 C-129.72547569 434.62697832 -129.70899346 432.03653934 -129.68847656 429.44604492 C-130.55601562 429.31842773 -131.42355469 429.19081055 -132.31738281 429.05932617 C-135.54566587 428.47202555 -138.50646289 427.64126427 -141.62597656 426.63354492 C-147.79615031 424.68060002 -154.00137711 423.03758949 -160.27832031 421.47338867 C-163.76265683 420.42369737 -166.63959331 419.44560794 -169.68847656 417.44604492 C-170.71191406 414.74682617 -170.71191406 414.74682617 -171.06347656 411.75854492 C-171.19496094 410.76467773 -171.32644531 409.77081055 -171.46191406 408.74682617 C-171.53667969 407.98756836 -171.61144531 407.22831055 -171.68847656 406.44604492 C-170.91503906 406.34807617 -170.14160156 406.25010742 -169.34472656 406.14916992 C-162.63890257 405.18645262 -157.59773783 403.72896785 -151.68847656 400.44604492 C-151.02847656 400.44604492 -150.36847656 400.44604492 -149.68847656 400.44604492 C-151.56444183 397.09461317 -151.56444183 397.09461317 -155.68847656 395.44604492 C-153.04847656 394.12604492 -150.40847656 392.80604492 -147.68847656 391.44604492 C-147.68847656 390.12604492 -147.68847656 388.80604492 -147.68847656 387.44604492 C-151.64847656 387.77604492 -155.60847656 388.10604492 -159.68847656 388.44604492 C-156.29729204 385.90265653 -152.96274109 383.81387436 -149.29785156 381.72729492 C-148.76675781 381.30448242 -148.23566406 380.88166992 -147.68847656 380.44604492 C-147.68847656 379.45604492 -147.68847656 378.46604492 -147.68847656 377.44604492 C-153.0367512 377.12514844 -155.99153034 377.99082303 -160.68847656 380.44604492 C-161.67847656 380.11604492 -162.66847656 379.78604492 -163.68847656 379.44604492 C-162.62306641 378.8659668 -162.62306641 378.8659668 -161.53613281 378.27416992 C-160.61703125 377.75338867 -159.69792969 377.23260742 -158.75097656 376.69604492 C-157.83445312 376.18557617 -156.91792969 375.67510742 -155.97363281 375.14916992 C-153.53955144 373.65744197 -153.53955144 373.65744197 -152.87207031 371.24291992 C-152.81148437 370.64995117 -152.75089844 370.05698242 -152.68847656 369.44604492 C-159.08363992 369.71306636 -164.13577503 370.72585005 -169.87597656 373.60620117 C-171.68847656 374.44604492 -171.68847656 374.44604492 -173.68847656 374.44604492 C-174.01847656 370.48604492 -174.34847656 366.52604492 -174.68847656 362.44604492 C-175.67847656 362.44604492 -176.66847656 362.44604492 -177.68847656 362.44604492 C-178.34847656 364.09604492 -179.00847656 365.74604492 -179.68847656 367.44604492 C-182.50734708 364.62717441 -182.91404516 361.33533191 -183.81347656 357.57104492 C-184.08611328 356.49016602 -184.08611328 356.49016602 -184.36425781 355.38745117 C-185.20704594 351.94659439 -185.68847656 349.00922609 -185.68847656 345.44604492 C-186.501875 345.80698242 -187.31527344 346.16791992 -188.15332031 346.53979492 C-200.10426628 351.3793231 -212.27669423 352.65406776 -224.70800781 348.29760742 C-226.74458425 347.42191972 -228.70976374 346.44454178 -230.68847656 345.44604492 C-230.68403534 346.2571875 -230.67959412 347.06833008 -230.67501831 347.90405273 C-230.63441844 355.66669363 -230.60423263 363.42928081 -230.58485222 371.19200134 C-230.57455271 375.17988732 -230.56065773 379.16768335 -230.53759766 383.15551758 C-230.43316504 401.68965532 -230.63502478 419.99499911 -232.68847656 438.44604492 C-237.54029137 439.53259496 -242.39260801 440.61686795 -247.24536133 441.69921875 C-248.88904877 442.06613758 -250.53260807 442.43363101 -252.17602539 442.80175781 C-260.42184662 444.64843883 -268.67036364 446.47988568 -276.95019531 448.16870117 C-278.09319092 448.40210205 -279.23618652 448.63550293 -280.41381836 448.87597656 C-284.69698886 449.62161163 -288.9605409 449.98624533 -293.29785156 450.23510742 C-295.83402352 450.36588251 -295.83402352 450.36588251 -298.68847656 451.44604492 C-304.015823 451.71768032 -309.35472559 451.69129057 -314.68847656 451.69604492 C-315.84728836 451.69755554 -315.84728836 451.69755554 -317.0295105 451.69909668 C-328.85688889 451.68863555 -340.11346918 451.01888489 -351.68847656 448.44604492 C-353.10357965 448.16348216 -354.51894785 447.88224406 -355.93457031 447.60229492 C-396.88752852 439.12263462 -434.09675278 413.50670396 -457.08300781 378.62182617 C-473.63144435 352.63963035 -481.2902741 322.82875344 -474.64941406 292.32104492 C-470.00713064 273.60094268 -460.54998389 259.16963519 -448.22363281 244.64526367 C-430.84539503 224.15748622 -419.81259385 205.00150757 -421.40917969 177.40209961 C-422.45869626 166.29410432 -425.94983167 155.59512029 -429.31347656 145.00854492 C-433.15627829 132.88296775 -434.9487995 122.42126048 -435.00097656 109.69604492 C-435.00653564 108.5470874 -435.01209473 107.39812988 -435.01782227 106.21435547 C-434.90268915 92.60011057 -431.59079562 80.65181151 -425.68847656 68.44604492 C-424.98271484 66.97844727 -424.98271484 66.97844727 -424.26269531 65.48120117 C-410.76008094 38.89490795 -387.1448272 19.91320967 -359.04785156 10.47338867 C-331.76830387 2.13092234 -302.84430719 3.31479908 -277.31347656 16.50854492 C-268.23509451 21.37470717 -259.9542708 27.32887826 -251.68847656 33.44604492 C-235.22745976 45.5841815 -219.79433554 55.34421219 -199.68847656 60.44604492 C-198.45871094 60.80569336 -197.22894531 61.1653418 -195.96191406 61.53588867 C-173.9423958 66.98211455 -151.95498502 59.25880199 -131.68847656 51.44604492 C-131.58306731 49.23522641 -131.58306731 49.23522641 -132.68847656 46.44604492 C-132.02847656 46.44604492 -131.36847656 46.44604492 -130.68847656 46.44604492 C-130.68847656 47.10604492 -130.68847656 47.76604492 -130.68847656 48.44604492 C-127.66100496 49.81678755 -127.66100496 49.81678755 -124.66894531 48.21557617 C-123.39884858 47.57454646 -122.13496331 46.92112864 -120.87597656 46.25854492 C-120.18310547 45.90268311 -119.49023438 45.54682129 -118.77636719 45.18017578 C-106.85307229 39.00598491 -95.06086302 32.54978215 -83.42089844 25.85766602 C-70.2414115 18.31264437 -56.84289323 11.94025544 -42.43847656 7.07104492 C-41.02115234 6.58849243 -41.02115234 6.58849243 -39.57519531 6.09619141 C-26.38529551 1.80652575 -13.79307477 -0.07740713 0 0 Z " fill="#FBE7E4" transform="translate(682.6884765625,272.553955078125)"/>
<path d="M0 0 C0.84498047 0.40992188 0.84498047 0.40992188 1.70703125 0.828125 C5.46476837 2.63183882 7.70027039 2.7630472 11.83203125 2.328125 C13.09425425 1.85983758 14.34420352 1.35754215 15.58203125 0.828125 C20.59789791 -1.21140055 25.49215649 -1.40672015 30.83203125 -0.671875 C35.26515475 1.46552383 37.95733771 3.7455408 39.83203125 8.328125 C40.5413728 14.50952995 39.55459537 19.25093153 35.83203125 24.328125 C35.01347656 24.93140625 34.19492187 25.5346875 33.3515625 26.15625 C30.24677794 28.83262243 29.48818213 30.95852643 28.20703125 34.828125 C27.789375 36.0759375 27.37171875 37.32375 26.94140625 38.609375 C25.977949 41.83899228 25.18201827 45.0391595 24.45703125 48.328125 C22.13032668 58.19017961 17.18146362 69.50152397 8.91015625 75.7890625 C3.86191313 78.31318406 -0.54119322 79.0402273 -6.16796875 78.328125 C-6.82796875 77.998125 -7.48796875 77.668125 -8.16796875 77.328125 C-8.82796875 79.638125 -9.48796875 81.948125 -10.16796875 84.328125 C-9.50796875 84.534375 -8.84796875 84.740625 -8.16796875 84.953125 C8.38522122 92.54000374 19.69361179 109.97361707 29.83203125 124.328125 C31.58270944 126.79878952 33.33571042 129.26765017 35.09570312 131.73168945 C36.17314645 133.24209024 37.24401291 134.75721557 38.30664062 136.27807617 C44.71466197 145.36281032 44.71466197 145.36281032 53.83203125 151.328125 C60.68814948 151.76342093 66.53772941 149.01828644 72.51953125 146.015625 C73.41438232 145.57847168 74.3092334 145.14131836 75.23120117 144.69091797 C83.94990006 140.38039687 92.4771655 135.71708427 100.9765625 130.9921875 C102.59419243 130.10260168 104.21263103 129.2144841 105.83203125 128.328125 C106.90396729 127.73209473 106.90396729 127.73209473 107.99755859 127.12402344 C111.37289134 125.3233057 113.63034686 124.3500099 117.50390625 123.9296875 C121.83626723 123.14660817 123.48177409 120.9963554 126.08203125 117.703125 C133.99930929 108.42495773 143.92317768 103.52553691 154.83203125 98.328125 C154.42210937 97.37292969 154.0121875 96.41773438 153.58984375 95.43359375 C149.42836399 85.53240781 146.3480673 76.21731388 146.83203125 65.328125 C145.96578125 65.245625 145.09953125 65.163125 144.20703125 65.078125 C138.72148436 63.85911458 135.22944547 61.2640423 131.95703125 56.765625 C129.09365961 51.74772942 128.71287734 46.95587039 129.83203125 41.328125 C132.5867568 34.96509696 136.43162141 30.91074651 142.83203125 28.328125 C148.39264333 27.63304849 151.78998592 29.12795976 156.83203125 31.328125 C160.9473109 31.95436321 163.30073276 31.16757377 166.89453125 29.328125 C172.72989504 26.58323307 178.5037358 26.25166237 184.83203125 27.328125 C189.94417544 29.8841971 192.82931333 34.02681285 194.83203125 39.328125 C194.83203125 40.318125 194.83203125 41.308125 194.83203125 42.328125 C195.69828125 42.245625 196.56453125 42.163125 197.45703125 42.078125 C201.70489263 42.3927814 203.56413545 43.64118845 206.83203125 46.328125 C211.1639331 52.18953723 210.49512863 58.33546169 209.83203125 65.328125 C208.6844405 70.46495979 206.88028056 74.82348086 203.8671875 79.1484375 C199.65348224 85.13109721 199.65348224 85.13109721 199.2734375 92.24609375 C199.9386688 94.90573471 200.79156035 97.38602463 201.7109375 99.98046875 C202.73752522 103.04592407 203.06790115 105.14085737 202.83203125 108.328125 C203.610625 108.28171875 204.38921875 108.2353125 205.19140625 108.1875 C232.6599785 107.30141702 256.52329588 118.57993784 276.41748047 137.05493164 C300.92055867 160.33405199 324.06398182 197.9704225 325.30761719 232.73413086 C325.43094956 245.20673323 323.15116362 253.9606674 314.2734375 263.16015625 C307.5024211 269.17281882 301.01874726 271.49904929 292.01953125 271.390625 C291.04371094 271.38160156 290.06789063 271.37257813 289.0625 271.36328125 C287.95841797 271.34587891 287.95841797 271.34587891 286.83203125 271.328125 C286.97640625 272.36324219 287.12078125 273.39835937 287.26953125 274.46484375 C288.60803908 284.94545534 289.05070077 295.32507261 289.08203125 305.890625 C289.09556641 307.82651489 289.09556641 307.82651489 289.109375 309.80151367 C289.10550781 311.00783447 289.10164063 312.21415527 289.09765625 313.45703125 C289.09540039 314.54056885 289.09314453 315.62410645 289.09082031 316.74047852 C288.83203125 319.328125 288.83203125 319.328125 286.83203125 321.328125 C282.94407313 322.56445104 278.93509661 323.36727918 274.95703125 324.265625 C273.36181641 324.64364258 273.36181641 324.64364258 271.734375 325.02929688 C253.4296777 329.22457041 235.60373251 330.90928537 216.83203125 330.828125 C215.75997437 330.82669495 214.68791748 330.82526489 213.58337402 330.8237915 C196.4881448 330.76747975 180.43406137 329.67627575 163.83203125 325.328125 C162.85975586 325.07691895 161.88748047 324.82571289 160.88574219 324.56689453 C155.58557166 323.16925293 150.33549125 321.64528453 145.10058594 320.02148438 C141.61231016 318.95533035 138.09701723 317.98926605 134.58203125 317.015625 C128.95398247 315.45007622 128.95398247 315.45007622 127.83203125 314.328125 C127.74502783 312.69339618 127.72502062 311.05498445 127.734375 309.41796875 C127.73759766 308.42861328 127.74082031 307.43925781 127.74414062 306.41992188 C127.75251953 305.37900391 127.76089844 304.33808594 127.76953125 303.265625 C127.77404297 302.22083984 127.77855469 301.17605469 127.78320312 300.09960938 C127.79503212 297.5090584 127.81151436 294.91861941 127.83203125 292.328125 C126.96449219 292.20050781 126.09695313 292.07289063 125.203125 291.94140625 C121.97484194 291.35410562 119.01404492 290.52334434 115.89453125 289.515625 C109.7243575 287.5626801 103.5191307 285.91966957 97.2421875 284.35546875 C93.75785098 283.30577745 90.8809145 282.32768802 87.83203125 280.328125 C86.80859375 277.62890625 86.80859375 277.62890625 86.45703125 274.640625 C86.32554687 273.64675781 86.1940625 272.65289063 86.05859375 271.62890625 C85.98382813 270.86964844 85.9090625 270.11039063 85.83203125 269.328125 C86.60546875 269.23015625 87.37890625 269.1321875 88.17578125 269.03125 C94.88160524 268.06853269 99.92276999 266.61104792 105.83203125 263.328125 C106.49203125 263.328125 107.15203125 263.328125 107.83203125 263.328125 C105.95606598 259.97669325 105.95606598 259.97669325 101.83203125 258.328125 C104.47203125 257.008125 107.11203125 255.688125 109.83203125 254.328125 C109.83203125 253.008125 109.83203125 251.688125 109.83203125 250.328125 C105.87203125 250.658125 101.91203125 250.988125 97.83203125 251.328125 C101.22321577 248.78473661 104.55776672 246.69595444 108.22265625 244.609375 C108.75375 244.1865625 109.28484375 243.76375 109.83203125 243.328125 C109.83203125 242.338125 109.83203125 241.348125 109.83203125 240.328125 C104.48375661 240.00722852 101.52897747 240.87290311 96.83203125 243.328125 C95.84203125 242.998125 94.85203125 242.668125 93.83203125 242.328125 C94.89744141 241.74804688 94.89744141 241.74804688 95.984375 241.15625 C97.36302734 240.37507813 97.36302734 240.37507813 98.76953125 239.578125 C99.68605469 239.06765625 100.60257813 238.5571875 101.546875 238.03125 C103.98095638 236.53952205 103.98095638 236.53952205 104.6484375 234.125 C104.70902344 233.53203125 104.76960937 232.9390625 104.83203125 232.328125 C98.43686789 232.59514643 93.38473278 233.60793012 87.64453125 236.48828125 C85.83203125 237.328125 85.83203125 237.328125 83.83203125 237.328125 C83.50203125 233.368125 83.17203125 229.408125 82.83203125 225.328125 C81.84203125 225.328125 80.85203125 225.328125 79.83203125 225.328125 C79.17203125 226.978125 78.51203125 228.628125 77.83203125 230.328125 C75.01316074 227.50925449 74.60646265 224.21741199 73.70703125 220.453125 C73.43439453 219.37224609 73.43439453 219.37224609 73.15625 218.26953125 C72.31346187 214.82867447 71.83203125 211.89130617 71.83203125 208.328125 C70.61193359 208.86953125 70.61193359 208.86953125 69.3671875 209.421875 C57.41624153 214.26140318 45.24381359 215.53614784 32.8125 211.1796875 C30.77592356 210.3039998 28.81074407 209.32662185 26.83203125 208.328125 C26.83647247 209.13926758 26.8409137 209.95041016 26.8454895 210.78613281 C26.88608937 218.5487737 26.91627518 226.31136089 26.93565559 234.07408142 C26.94595511 238.0619674 26.95985008 242.04976343 26.98291016 246.03759766 C27.08734278 264.5717354 26.88548303 282.87707919 24.83203125 301.328125 C19.98021644 302.41467504 15.1278998 303.49894803 10.27514648 304.58129883 C8.63145904 304.94821766 6.98789974 305.31571109 5.34448242 305.68383789 C-2.90133881 307.53051891 -11.14985583 309.36196576 -19.4296875 311.05078125 C-20.57268311 311.28418213 -21.71567871 311.51758301 -22.89331055 311.75805664 C-27.17648105 312.5036917 -31.44003308 312.86832541 -35.77734375 313.1171875 C-38.31351571 313.24796258 -38.31351571 313.24796258 -41.16796875 314.328125 C-46.49531518 314.5997604 -51.83421777 314.57337065 -57.16796875 314.578125 C-58.32678055 314.57963562 -58.32678055 314.57963562 -59.50900269 314.58117676 C-71.33638108 314.57071563 -82.59296136 313.90096497 -94.16796875 311.328125 C-95.58307184 311.04556224 -96.99844004 310.76432414 -98.4140625 310.484375 C-116.72058076 306.6938538 -134.57670525 299.72230067 -150.16796875 289.328125 C-150.48922729 287.47360229 -150.48922729 287.47360229 -150.40576172 285.25341797 C-150.378349 284.44612244 -150.35093628 283.6388269 -150.32269287 282.80706787 C-150.08719253 279.03395299 -149.77017262 275.2819231 -149.36328125 271.5234375 C-149.23722 270.31649734 -149.23722 270.31649734 -149.10861206 269.08517456 C-148.93097539 267.39589669 -148.75102644 265.70686048 -148.56884766 264.01806641 C-148.29447438 261.46712338 -148.02952798 258.91532628 -147.765625 256.36328125 C-146.96656909 248.76940113 -146.08289015 241.26571006 -144.61035156 233.76757812 C-143.98686021 230.32942934 -143.6410293 226.87887082 -143.28100586 223.40478516 C-142.0187416 211.27023179 -139.9263802 199.41921339 -137.60546875 187.453125 C-135.19102796 175.00312627 -133.50099801 162.90185307 -132.79785156 150.22265625 C-131.47448441 127.70440884 -123.9309786 106.04979636 -107.16796875 90.328125 C-87.31063618 74.52793779 -66.86033454 71.67074634 -42.16796875 71.328125 C-35.90569072 62.12235376 -35.90569072 62.12235376 -34.75 51.5234375 C-35.46472456 49.69232499 -36.18090284 47.86081862 -36.96337891 46.05761719 C-40.75615612 37.16662008 -40.75888688 26.71024695 -37.54296875 17.578125 C-34.38374009 11.02606274 -29.53061196 8.5094466 -23.16796875 5.328125 C-21.09377208 3.73790755 -19.14760213 2.03780837 -17.16796875 0.328125 C-12.50388862 -2.00391506 -4.90471644 -1.52002023 0 0 Z " fill="#F98A7C" transform="translate(425.16796875,409.671875)"/>
<path d="M0 0 C0.84498047 0.40992188 0.84498047 0.40992188 1.70703125 0.828125 C5.46476837 2.63183882 7.70027039 2.7630472 11.83203125 2.328125 C13.09425425 1.85983758 14.34420352 1.35754215 15.58203125 0.828125 C20.59789791 -1.21140055 25.49215649 -1.40672015 30.83203125 -0.671875 C35.26515475 1.46552383 37.95733771 3.7455408 39.83203125 8.328125 C40.5413728 14.50952995 39.55459537 19.25093153 35.83203125 24.328125 C35.01347656 24.93140625 34.19492187 25.5346875 33.3515625 26.15625 C30.24677794 28.83262243 29.48818213 30.95852643 28.20703125 34.828125 C27.789375 36.0759375 27.37171875 37.32375 26.94140625 38.609375 C25.977949 41.83899228 25.18201827 45.0391595 24.45703125 48.328125 C22.13032668 58.19017961 17.18146362 69.50152397 8.91015625 75.7890625 C3.86191313 78.31318406 -0.54119322 79.0402273 -6.16796875 78.328125 C-6.82796875 77.998125 -7.48796875 77.668125 -8.16796875 77.328125 C-8.82796875 79.638125 -9.48796875 81.948125 -10.16796875 84.328125 C-9.50796875 84.534375 -8.84796875 84.740625 -8.16796875 84.953125 C8.38522122 92.54000374 19.69361179 109.97361707 29.83203125 124.328125 C31.58270944 126.79878952 33.33571042 129.26765017 35.09570312 131.73168945 C36.17314645 133.24209024 37.24401291 134.75721557 38.30664062 136.27807617 C43.10291397 143.02696079 48.02137843 149.08956164 55.83203125 152.328125 C55.83203125 152.988125 55.83203125 153.648125 55.83203125 154.328125 C54.57390625 154.410625 53.31578125 154.493125 52.01953125 154.578125 C43.03133219 155.59565697 35.19082865 159.18329243 27.83203125 164.328125 C28.94494926 166.58071385 30.08837058 168.80945782 31.26953125 171.02734375 C35.99543637 180.0656373 35.99543637 180.0656373 36.76953125 184.640625 C37.56570382 189.11396571 39.3053286 192.98256835 41.20703125 197.078125 C41.64583618 198.03585815 41.64583618 198.03585815 42.09350586 199.01293945 C44.40548632 203.86663473 46.61015977 208.26768634 51.58203125 210.640625 C52.69578125 210.9809375 52.69578125 210.9809375 53.83203125 211.328125 C53.83203125 211.988125 53.83203125 212.648125 53.83203125 213.328125 C43.82656167 213.75155396 35.79153404 212.87054255 26.83203125 208.328125 C26.83647247 209.13926758 26.8409137 209.95041016 26.8454895 210.78613281 C26.88608937 218.5487737 26.91627518 226.31136089 26.93565559 234.07408142 C26.94595511 238.0619674 26.95985008 242.04976343 26.98291016 246.03759766 C27.08734278 264.5717354 26.88548303 282.87707919 24.83203125 301.328125 C19.98021644 302.41467504 15.1278998 303.49894803 10.27514648 304.58129883 C8.63145904 304.94821766 6.98789974 305.31571109 5.34448242 305.68383789 C-2.90133881 307.53051891 -11.14985583 309.36196576 -19.4296875 311.05078125 C-20.57268311 311.28418213 -21.71567871 311.51758301 -22.89331055 311.75805664 C-27.17648105 312.5036917 -31.44003308 312.86832541 -35.77734375 313.1171875 C-38.31351571 313.24796258 -38.31351571 313.24796258 -41.16796875 314.328125 C-46.49531518 314.5997604 -51.83421777 314.57337065 -57.16796875 314.578125 C-58.32678055 314.57963562 -58.32678055 314.57963562 -59.50900269 314.58117676 C-71.33638108 314.57071563 -82.59296136 313.90096497 -94.16796875 311.328125 C-95.58307184 311.04556224 -96.99844004 310.76432414 -98.4140625 310.484375 C-116.72058076 306.6938538 -134.57670525 299.72230067 -150.16796875 289.328125 C-150.48922729 287.47360229 -150.48922729 287.47360229 -150.40576172 285.25341797 C-150.378349 284.44612244 -150.35093628 283.6388269 -150.32269287 282.80706787 C-150.08719253 279.03395299 -149.77017262 275.2819231 -149.36328125 271.5234375 C-149.23722 270.31649734 -149.23722 270.31649734 -149.10861206 269.08517456 C-148.93097539 267.39589669 -148.75102644 265.70686048 -148.56884766 264.01806641 C-148.29447438 261.46712338 -148.02952798 258.91532628 -147.765625 256.36328125 C-146.96656909 248.76940113 -146.08289015 241.26571006 -144.61035156 233.76757812 C-143.98686021 230.32942934 -143.6410293 226.87887082 -143.28100586 223.40478516 C-142.0187416 211.27023179 -139.9263802 199.41921339 -137.60546875 187.453125 C-135.19102796 175.00312627 -133.50099801 162.90185307 -132.79785156 150.22265625 C-131.47448441 127.70440884 -123.9309786 106.04979636 -107.16796875 90.328125 C-87.31063618 74.52793779 -66.86033454 71.67074634 -42.16796875 71.328125 C-35.90569072 62.12235376 -35.90569072 62.12235376 -34.75 51.5234375 C-35.46472456 49.69232499 -36.18090284 47.86081862 -36.96337891 46.05761719 C-40.75615612 37.16662008 -40.75888688 26.71024695 -37.54296875 17.578125 C-34.38374009 11.02606274 -29.53061196 8.5094466 -23.16796875 5.328125 C-21.09377208 3.73790755 -19.14760213 2.03780837 -17.16796875 0.328125 C-12.50388862 -2.00391506 -4.90471644 -1.52002023 0 0 Z " fill="#F8877A" transform="translate(425.16796875,409.671875)"/>
<path d="M0 0 C0.495 1.485 0.495 1.485 1 3 C-7.25724265 12.99671255 -7.25724265 12.99671255 -13 15 C-13.99 15 -14.98 15 -16 15 C-15.20552011 20.8715828 -15.20552011 20.8715828 -11.375 25 C-5.57559864 26.71834114 -1.21101595 26.80954447 4.25 24.3125 C8.65999889 21.86632874 10.99567354 18.62237351 13.625 14.375 C16.31742691 11.68257309 17.82804221 11.38449957 21.58154297 11.35522461 C22.29713379 11.38237549 23.01272461 11.40952637 23.75 11.4375 C24.50297363 11.45627197 25.25594727 11.47504395 26.03173828 11.49438477 C54.30899972 12.6974838 77.4408352 29.4385314 96.1875 49.375 C117.68701186 73.62644938 136.69850148 109.58980154 135.37109375 142.67578125 C134.61979618 153.49118956 130.05907289 160.84354327 122 168 C115.58661108 172.52159511 110.02624671 174.15694273 102.1875 174.0625 C101.21167969 174.05347656 100.23585938 174.04445313 99.23046875 174.03515625 C98.12638672 174.01775391 98.12638672 174.01775391 97 174 C97.2165625 175.55267578 97.2165625 175.55267578 97.4375 177.13671875 C98.77600783 187.61733034 99.21866952 197.99694761 99.25 208.5625 C99.25902344 209.85309326 99.26804687 211.14368652 99.27734375 212.47338867 C99.27347656 213.67970947 99.26960937 214.88603027 99.265625 216.12890625 C99.26336914 217.21244385 99.26111328 218.29598145 99.25878906 219.41235352 C99 222 99 222 97 224 C93.11204188 225.23632604 89.10306536 226.03915418 85.125 226.9375 C83.52978516 227.31551758 83.52978516 227.31551758 81.90234375 227.70117188 C63.59764645 231.89644541 45.77170126 233.58116037 27 233.5 C25.39191467 233.49785492 25.39191467 233.49785492 23.75134277 233.4956665 C6.65611355 233.43935475 -9.39796988 232.34815075 -26 228 C-26.97227539 227.74879395 -27.94455078 227.49758789 -28.94628906 227.23876953 C-34.24645959 225.84112793 -39.49654 224.31715953 -44.73144531 222.69335938 C-48.21972109 221.62720535 -51.73501402 220.66114105 -55.25 219.6875 C-60.87804878 218.12195122 -60.87804878 218.12195122 -62 217 C-62.08700342 215.36527118 -62.10701063 213.72685945 -62.09765625 212.08984375 C-62.09443359 211.10048828 -62.09121094 210.11113281 -62.08789062 209.09179688 C-62.07532227 207.53041992 -62.07532227 207.53041992 -62.0625 205.9375 C-62.05798828 204.89271484 -62.05347656 203.84792969 -62.04882812 202.77148438 C-62.03699913 200.1809334 -62.02051689 197.59049441 -62 195 C-57.99833875 196.09820366 -53.99899753 197.20463948 -50 198.3125 C-48.87464844 198.62123047 -47.74929688 198.92996094 -46.58984375 199.24804688 C-37.17771084 201.86252824 -37.17771084 201.86252824 -32.75 203.73046875 C-25.07764659 206.32788006 -19.68192548 205.34286032 -12.50415039 201.80004883 C-11.59528076 201.32978271 -10.68641113 200.8595166 -9.75 200.375 C-7.72290629 199.36538324 -5.69554938 198.35629479 -3.66796875 197.34765625 C-2.59466309 196.80641113 -1.52135742 196.26516602 -0.41552734 195.70751953 C3.16948569 193.91526927 6.77284294 192.16662817 10.38671875 190.43359375 C11.0093309 190.13497437 11.63194305 189.83635498 12.27342224 189.52868652 C13.5331943 188.92468106 14.79301587 188.32077885 16.05288696 187.71697998 C33.27763366 179.54091234 33.27763366 179.54091234 50.21484375 170.796875 C52 170 52 170 55 170 C55 168.35 55 166.7 55 165 C56.8253125 165.61875 56.8253125 165.61875 58.6875 166.25 C59.51894531 166.52328125 60.35039063 166.7965625 61.20703125 167.078125 C63.08467014 167.69787714 64.95710633 168.33359723 66.82421875 168.984375 C76.38588928 172.16751756 86.05303597 173.61351716 96 175 C96 174.34 96 173.68 96 173 C94.85402344 173.03351563 93.70804688 173.06703125 92.52734375 173.1015625 C88.0392525 173.09564804 83.9238557 172.38266035 79.5625 171.375 C78.40983643 171.11420654 78.40983643 171.11420654 77.23388672 170.84814453 C67.68532988 168.58710548 57.66992332 165.66842025 49 161 C49.47539793 158.57161599 49.96347462 156.15383318 50.53515625 153.74609375 C52.87882198 143.48604598 52.14482385 133.38518778 51 123 C64.9975652 118.72564034 91.20053116 111.10026558 105 118 C105 117.34 105 116.68 105 116 C95.1 116 85.2 116 75 116 C73.02 112.04 71.04 108.08 69 104 C67.39598237 101.0666589 65.78420229 98.15078223 64.125 95.25 C63.52171875 94.18652344 63.52171875 94.18652344 62.90625 93.1015625 C61.94021372 91.39949858 60.97052987 89.69950564 60 88 C64.1607674 96.41657771 68.32994415 104.79367826 72.96875 112.9609375 C74 115 74 115 74 117 C73.41508789 117.11593506 72.83017578 117.23187012 72.22753906 117.35131836 C69.5681563 117.87902809 66.90907635 118.40824858 64.25 118.9375 C63.32960938 119.11990234 62.40921875 119.30230469 61.4609375 119.49023438 C60.57148437 119.66748047 59.68203125 119.84472656 58.765625 120.02734375 C57.94868164 120.18968506 57.13173828 120.35202637 56.29003906 120.51928711 C54.17772917 120.96269203 52.089663 121.46079981 50 122 C47.68649299 111.33735686 46.0199117 100.67208517 44.63745117 89.8527832 C44.30791934 87.27669104 43.96994336 84.70180377 43.63085938 82.12695312 C43.4161814 80.47662555 43.20197081 78.8262371 42.98828125 77.17578125 C42.88832352 76.41227859 42.78836578 75.64877594 42.68537903 74.86213684 C42.26251308 71.53202925 42 68.36430367 42 65 C22.27933453 73.87665401 2.93754465 83.44847021 -16.35595703 93.21508789 C-17.32967255 93.70617538 -18.30338806 94.19726288 -19.30661011 94.70323181 C-21.13811326 95.62710894 -22.96793069 96.55433892 -24.79568481 97.48561096 C-41.53253275 105.91976271 -41.53253275 105.91976271 -50.9609375 103.12109375 C-52.74828034 102.51259389 -54.53528732 101.90280579 -56.31469727 101.27148438 C-62.63058003 99.04817182 -69.04358534 97.26739306 -75.5 95.5 C-83.62950834 93.2632397 -91.63747968 90.88111431 -99.609375 88.1328125 C-105.34704602 86.21584868 -111.16912294 84.608208 -117 83 C-115.51953125 81.0234375 -115.51953125 81.0234375 -113 79 C-110.08081166 78.64597716 -107.59309624 78.52714788 -104.6875 78.625 C-103.50438232 78.64433594 -103.50438232 78.64433594 -102.29736328 78.6640625 C-94.77873889 78.85711845 -87.4158009 79.77497094 -80 81 C-79.80019531 80.08089844 -79.60039063 79.16179687 -79.39453125 78.21484375 C-77.77268997 72.55192647 -74.62221096 67.62740072 -71.6875 62.5625 C-71.11837891 61.56412109 -70.54925781 60.56574219 -69.96289062 59.53710938 C-68.32689998 56.68023019 -66.6706716 53.83671748 -65 51 C-64.30765259 49.82123291 -64.30765259 49.82123291 -63.60131836 48.61865234 C-61.45154273 45.05658844 -59.48814569 42.11272164 -56.1875 39.5 C-53.40992088 37.23300528 -51.04999722 34.94062183 -48.6875 32.25 C-44.5034608 27.99079842 -39.61892199 25.11842992 -34.5 22.125 C-33.69264404 21.64836914 -32.88528809 21.17173828 -32.0534668 20.68066406 C-27.08436168 17.86083987 -22.6059547 16.1186194 -17 15 C-17 12.69 -17 10.38 -17 8 C-15.91332031 7.76216797 -15.91332031 7.76216797 -14.8046875 7.51953125 C-8.58631093 6.0188297 -4.54097559 4.54097559 0 0 Z " fill="#FBA69E" transform="translate(615,507)"/>
<path d="M0 0 C0.33 0 0.66 0 1 0 C1.08636719 0.78761719 1.17273438 1.57523438 1.26171875 2.38671875 C3.36609799 18.70048443 9.7312635 33.64087241 22.6484375 44.31640625 C35.41484065 53.45647229 50.0188693 54.62367176 65.25 52.4375 C89.70764902 47.10326498 112.52218789 34.43688493 134 22 C134.71591309 21.59040039 135.43182617 21.18080078 136.16943359 20.75878906 C144.76471664 15.84006778 153.15714967 10.73671577 161.26831055 5.046875 C165.68443643 2 165.68443643 2 169 2 C168.91443874 10.58212501 168.81914871 19.16407047 168.71247292 27.74595642 C168.66318675 31.73376213 168.61687094 35.72154951 168.578125 39.70947266 C168.39601017 58.22069594 167.96137921 76.57110012 166 95 C161.14818519 96.08655004 156.29586855 97.17082303 151.44311523 98.25317383 C149.79942779 98.62009266 148.15586849 98.98758609 146.51245117 99.35571289 C138.26662994 101.20239391 130.01811292 103.03384076 121.73828125 104.72265625 C120.59528564 104.95605713 119.45229004 105.18945801 118.2746582 105.42993164 C113.9914877 106.1755667 109.72793567 106.54020041 105.390625 106.7890625 C102.85445304 106.91983758 102.85445304 106.91983758 100 108 C94.67265357 108.2716354 89.33375098 108.24524565 84 108.25 C82.8411882 108.25151062 82.8411882 108.25151062 81.65896606 108.25305176 C69.83158767 108.24259063 58.57500739 107.57283997 47 105 C45.58489691 104.71743724 44.16952871 104.43619914 42.75390625 104.15625 C24.44738799 100.3657288 6.5912635 93.39417567 -9 83 C-9.32125854 81.14547729 -9.32125854 81.14547729 -9.23779297 78.92529297 C-9.21038025 78.11799744 -9.18296753 77.3107019 -9.15472412 76.47894287 C-8.91922378 72.70582799 -8.60220387 68.9537981 -8.1953125 65.1953125 C-8.11127167 64.39068573 -8.02723083 63.58605896 -7.94064331 62.75704956 C-7.76300664 61.06777169 -7.58305769 59.37873548 -7.40087891 57.68994141 C-7.12650563 55.13899838 -6.86155923 52.58720128 -6.59765625 50.03515625 C-5.80476426 42.49854356 -4.93518234 35.04771359 -3.47314453 27.60644531 C-2.52397837 22.3777054 -1.98096703 17.08997818 -1.375 11.8125 C-1.2409375 10.66974609 -1.106875 9.52699219 -0.96875 8.34960938 C-0.64272499 5.56675308 -0.31986218 2.7835702 0 0 Z " fill="#F8897B" transform="translate(284,616)"/>
<path d="M0 0 C0.58627883 3.74954529 1.16888837 7.49965046 1.75 11.25 C1.92829346 12.40048828 2.10658691 13.55097656 2.2902832 14.73632812 C3.84971696 24.87298905 5.30006921 35.02364339 6.69238281 45.18457031 C6.84932617 46.30959961 7.00626953 47.43462891 7.16796875 48.59375 C7.30485107 49.59083984 7.4417334 50.58792969 7.58276367 51.61523438 C7.88377782 54.00620183 7.88377782 54.00620183 9 56 C9.73863281 55.79503906 10.47726562 55.59007812 11.23828125 55.37890625 C12.25277344 55.10949219 13.26726562 54.84007812 14.3125 54.5625 C15.29863281 54.29566406 16.28476562 54.02882813 17.30078125 53.75390625 C22.17423508 52.76068915 27.04558545 52.37382347 32 52 C31.62190186 51.30438965 31.24380371 50.6087793 30.85424805 49.89208984 C29.13096924 46.72028464 27.4092212 43.54765096 25.6875 40.375 C25.09259766 39.28058594 24.49769531 38.18617188 23.88476562 37.05859375 C23.01948242 35.46337891 23.01948242 35.46337891 22.13671875 33.8359375 C21.34334106 32.37486572 21.34334106 32.37486572 20.53393555 30.88427734 C20.02773682 29.93246582 19.52153809 28.9806543 19 28 C18.12952026 26.42726318 18.12952026 26.42726318 17.24145508 24.82275391 C16 22 16 22 17 19 C17.34256836 19.6297876 17.68513672 20.2595752 18.03808594 20.90844727 C19.60796833 23.79354341 21.17897536 26.6780257 22.75 29.5625 C23.28882813 30.55314453 23.82765625 31.54378906 24.3828125 32.56445312 C24.91132812 33.53447266 25.43984375 34.50449219 25.984375 35.50390625 C26.7568457 36.92340576 26.7568457 36.92340576 27.54492188 38.37158203 C28.78792891 40.6169199 30.07580616 42.82380477 31.390625 45.02734375 C33 48 33 48 33 51 C34.11375 50.835 35.2275 50.67 36.375 50.5 C41.37575885 49.93901744 46.34901681 49.8870167 51.375 49.875 C52.57068604 49.86823242 52.57068604 49.86823242 53.79052734 49.86132812 C57.11115404 49.86980452 59.82870287 49.94290096 63 51 C63 51.66 63 52.32 63 53 C62.42483643 52.97381592 61.84967285 52.94763184 61.25708008 52.9206543 C43.54188465 52.23388404 27.30094833 54.5190729 10 58 C10.07001221 58.72372803 10.14002441 59.44745605 10.2121582 60.19311523 C11.35790085 72.3424447 12.3090911 84.62337621 7 96 C7.54672363 96.18175781 8.09344727 96.36351562 8.65673828 96.55078125 C9.41196777 96.80214844 10.16719727 97.05351563 10.9453125 97.3125 C12.1832959 97.72435547 12.1832959 97.72435547 13.44628906 98.14453125 C15.75721606 98.9186697 18.0622401 99.70829612 20.3671875 100.5 C31.4791629 104.23620752 42.37829746 106.5163784 54 108 C54 108.66 54 109.32 54 110 C48.15937649 110.17818851 42.99653075 109.6276748 37.3125 108.3125 C36.53519531 108.13678467 35.75789062 107.96106934 34.95703125 107.7800293 C27.35247058 105.98285773 20.00513188 103.50256594 13 100 C13 101.65 13 103.3 13 105 C2.7839394 110.17654338 -7.50515643 115.18945772 -17.83666992 120.13134766 C-23.85745491 123.01138394 -29.87269298 125.90222725 -35.87890625 128.8125 C-36.86506172 129.29002213 -36.86506172 129.29002213 -37.87113953 129.77719116 C-41.7650225 131.66274617 -41.7650225 131.66274617 -45.65731812 133.55157471 C-47.45311299 134.42389618 -49.24997441 135.29402097 -51.046875 136.1640625 C-52.07651367 136.66373535 -53.10615234 137.1634082 -54.16699219 137.67822266 C-61.88072807 141.27716837 -61.88072807 141.27716837 -66.625 141.1875 C-67.38039063 141.18105469 -68.13578125 141.17460938 -68.9140625 141.16796875 C-71 141 -71 141 -74 140 C-74.81467204 137.53120298 -75.41294572 135.22144015 -75.9375 132.6875 C-76.19007568 131.54015381 -76.19007568 131.54015381 -76.44775391 130.36962891 C-76.98152969 127.91624643 -77.49354522 125.45915722 -78 123 C-78.15581543 122.25282715 -78.31163086 121.5056543 -78.47216797 120.73583984 C-79.48742004 115.84221743 -80.45597235 110.94013524 -81.40966797 106.03417969 C-82.07223758 102.62871438 -82.74138392 99.22456495 -83.41015625 95.8203125 C-87.17360926 76.58961482 -90.7976729 57.33335934 -94 38 C-93.319375 38.08121094 -92.63875 38.16242187 -91.9375 38.24609375 C-85.58488013 38.66002776 -80.60450098 37.79085971 -74.85546875 35.1171875 C-74.17340866 34.80920731 -73.49134857 34.50122711 -72.78862 34.18391418 C-63.50772967 29.93997703 -54.41590311 25.29580345 -45.3125 20.6875 C-34.36538226 15.15622963 -23.40459491 9.65737048 -12.35546875 4.33203125 C-11.46144852 3.89638351 -10.56742828 3.46073578 -9.64631653 3.0118866 C-8.81839096 2.61584732 -7.99046539 2.21980804 -7.13745117 1.81176758 C-6.40902512 1.46084549 -5.68059906 1.1099234 -4.93009949 0.74836731 C-3 0 -3 0 0 0 Z " fill="#F16559" transform="translate(657,572)"/>
<path d="M0 0 C1.216875 0.4125 2.43375 0.825 3.6875 1.25 C4.51894531 1.52328125 5.35039063 1.7965625 6.20703125 2.078125 C8.08467014 2.69787714 9.95710633 3.33359723 11.82421875 3.984375 C21.38588928 7.16751756 31.05303597 8.61351716 41 10 C41.33 9.34 41.66 8.68 42 8 C43.54936287 19.8830599 44.21438318 31.63771246 44.25 43.625 C44.25902344 44.91172607 44.26804687 46.19845215 44.27734375 47.52416992 C44.27347656 48.72533447 44.26960937 49.92649902 44.265625 51.1640625 C44.26336914 52.24123535 44.26111328 53.3184082 44.25878906 54.42822266 C44 57 44 57 42 59 C38.11204188 60.23632604 34.10306536 61.03915418 30.125 61.9375 C29.06152344 62.18951172 27.99804688 62.44152344 26.90234375 62.70117188 C8.59764645 66.89644541 -9.22829874 68.58116037 -28 68.5 C-29.07205688 68.49856995 -30.14411377 68.49713989 -31.24865723 68.4956665 C-48.34388645 68.43935475 -64.39796988 67.34815075 -81 63 C-82.45841309 62.62319092 -82.45841309 62.62319092 -83.94628906 62.23876953 C-89.24645959 60.84112793 -94.49654 59.31715953 -99.73144531 57.69335938 C-103.21972109 56.62720535 -106.73501402 55.66114105 -110.25 54.6875 C-115.87804878 53.12195122 -115.87804878 53.12195122 -117 52 C-117.08700342 50.36527118 -117.10701063 48.72685945 -117.09765625 47.08984375 C-117.09443359 46.10048828 -117.09121094 45.11113281 -117.08789062 44.09179688 C-117.07951172 43.05087891 -117.07113281 42.00996094 -117.0625 40.9375 C-117.05798828 39.89271484 -117.05347656 38.84792969 -117.04882812 37.77148438 C-117.03699913 35.1809334 -117.02051689 32.59049441 -117 30 C-112.99833875 31.09820366 -108.99899753 32.20463948 -105 33.3125 C-103.87464844 33.62123047 -102.74929688 33.92996094 -101.58984375 34.24804688 C-92.17771084 36.86252824 -92.17771084 36.86252824 -87.75 38.73046875 C-80.07764659 41.32788006 -74.68192548 40.34286032 -67.50415039 36.80004883 C-66.59528076 36.32978271 -65.68641113 35.8595166 -64.75 35.375 C-62.72290629 34.36538324 -60.69554938 33.35629479 -58.66796875 32.34765625 C-57.59466309 31.80641113 -56.52135742 31.26516602 -55.41552734 30.70751953 C-51.83051431 28.91526927 -48.22715706 27.16662817 -44.61328125 25.43359375 C-43.9906691 25.13497437 -43.36805695 24.83635498 -42.72657776 24.52868652 C-41.4668057 23.92468106 -40.20698413 23.32077885 -38.94711304 22.71697998 C-21.72236634 14.54091234 -21.72236634 14.54091234 -4.78515625 5.796875 C-3 5 -3 5 0 5 C0 3.35 0 1.7 0 0 Z " fill="#FCA39B" transform="translate(670,672)"/>
<path d="M0 0 C0.9300737 0.31321953 0.9300737 0.31321953 1.87893677 0.63276672 C3.09732742 1.04138191 3.09732742 1.04138191 4.34033203 1.45825195 C5.14600616 1.72893997 5.9516803 1.99962799 6.7817688 2.27851868 C17.31680181 5.70504588 29.80512612 5.37480445 39.8984375 0.875 C42 0 42 0 45 0 C47.475 9.9 47.475 9.9 50 20 C50.99 18.68 51.98 17.36 53 16 C54.32 16.33 55.64 16.66 57 17 C57 20.96 57 24.92 57 29 C59.413125 27.7625 59.413125 27.7625 61.875 26.5 C67.44744895 23.93421611 71.94335232 23.4087871 78 24 C77.9375 26.1875 77.9375 26.1875 77 29 C74.8282781 30.93157957 72.47398953 32.48201687 70 34 C70.845625 33.505 71.69125 33.01 72.5625 32.5 C76.33796832 30.85252292 78.92817548 30.75569053 83 31 C83.495 32.98 83.495 32.98 84 35 C80.80331012 37.6486859 77.60513403 39.93992341 74 42 C78.455 41.505 78.455 41.505 83 41 C83.495 43.475 83.495 43.475 84 46 C82.02 47.32 80.04 48.64 78 50 C78.495 50.45375 78.99 50.9075 79.5 51.375 C81 53 81 53 81 55 C79.44148245 55.82011312 77.87798284 56.63076213 76.3125 57.4375 C75.00732422 58.11619141 75.00732422 58.11619141 73.67578125 58.80859375 C68.75944043 60.99762141 64.34262811 61.10475741 59 61 C59.23874201 65.1309602 59.91399421 68.39782414 62 72 C66.71010478 74.69502058 71.75803053 75.80398194 77 77 C78.42279506 77.35439941 79.84468347 77.7124593 81.265625 78.07421875 C83.92105745 78.74903769 86.5762282 79.38895136 89.24609375 80.0078125 C93.24651196 81.06515509 97.125665 82.54712438 101 84 C101 91.26 101 98.52 101 106 C95.37663722 104.57435873 89.94443977 103.01521025 84.52148438 100.94628906 C66.14235853 94.04745777 47.79319973 90.42826821 28.1875 90.5 C27.48037872 90.5015509 26.77325745 90.50310181 26.04470825 90.50469971 C16.54885448 90.56527888 7.36268971 91.42320314 -2 93 C-2.11360833 87.52155369 -1.96605289 82.12383028 -1.51586914 76.66162109 C-0.92247629 68.6198097 -0.77683291 60.59749703 -0.68359375 52.5390625 C-0.6629549 51.01206999 -0.64195701 49.48508229 -0.62062073 47.95809937 C-0.56611391 43.98974576 -0.51639803 40.02134694 -0.46777344 36.05291748 C-0.41702802 31.98315534 -0.36162236 27.91345672 -0.30664062 23.84375 C-0.19993596 15.89588746 -0.0983063 7.94797085 0 0 Z " fill="#FBE7E3" transform="translate(452,618)"/>
<path d="M0 0 C5.11214419 2.5560721 7.99728208 6.69868785 10 12 C10 12.99 10 13.98 10 15 C11.299375 14.87625 11.299375 14.87625 12.625 14.75 C16.87286138 15.0646564 18.7321042 16.31306345 22 19 C26.33190185 24.86141223 25.66309738 31.00733669 25 38 C23.85240925 43.13683479 22.04824931 47.49535586 19.03515625 51.8203125 C14.82145099 57.80297221 14.82145099 57.80297221 14.44140625 64.91796875 C15.10663755 67.57760971 15.9595291 70.05789963 16.87890625 72.65234375 C18 76 18 76 18 81 C22.62 81 27.24 81 32 81 C32 81.33 32 81.66 32 82 C31.28714844 81.96777344 30.57429687 81.93554688 29.83984375 81.90234375 C23.86208708 81.9017264 23.86208708 81.9017264 18.95703125 84.9296875 C17.81680223 86.52131153 16.7071492 88.13527869 15.62890625 89.76953125 C13.21952689 93.06870538 10.66020655 94.27754986 7 96 C6.01 96.495 6.01 96.495 5 97 C-0.6196168 97.37464112 -4.121632 97.13609371 -9 94 C-11.29013653 90.5647952 -11.17842973 89.014669 -11 85 C-10.34773437 84.72027344 -9.69546875 84.44054687 -9.0234375 84.15234375 C-2.78414028 81.29036523 0.89760337 78.5058481 5 73 C4.67 72.67 4.34 72.34 4 72 C3.29875 72.61875 2.5975 73.2375 1.875 73.875 C-2.54691072 77.14336879 -6.5216844 78.32225386 -12 78 C-12 80.31 -12 82.62 -12 85 C-12.84820313 85.32871094 -13.69640625 85.65742187 -14.5703125 85.99609375 C-28.9264288 91.81742003 -39.83203208 99.16404851 -50.453125 110.47265625 C-53 113 -53 113 -55 113 C-55.30292969 112.34773437 -55.60585938 111.69546875 -55.91796875 111.0234375 C-56.33691406 110.14945313 -56.75585938 109.27546875 -57.1875 108.375 C-57.59355469 107.51648438 -57.99960937 106.65796875 -58.41796875 105.7734375 C-60.30147009 102.47149689 -62.50278948 99.86234886 -65 97 C-54.67264866 85.01450499 -44.35170371 77.83772271 -30 71 C-30.40992188 70.04480469 -30.81984375 69.08960938 -31.2421875 68.10546875 C-35.40366726 58.20428281 -38.48396395 48.88918888 -38 38 C-38.86625 37.9175 -39.7325 37.835 -40.625 37.75 C-46.11054689 36.53098958 -49.60258578 33.9359173 -52.875 29.4375 C-55.73837164 24.41960442 -56.11915391 19.62774539 -55 14 C-52.24527445 7.63697196 -48.40040984 3.58262151 -42 1 C-36.43938792 0.30492349 -33.04204533 1.79983476 -28 4 C-23.88472035 4.62623821 -21.53129849 3.83944877 -17.9375 2 C-12.10213621 -0.74489193 -6.32829545 -1.07646263 0 0 Z " fill="#FABDB5" transform="translate(610,437)"/>
<path d="M0 0 C0.56332031 0.27328125 1.12664062 0.5465625 1.70703125 0.828125 C5.46476837 2.63183882 7.70027039 2.7630472 11.83203125 2.328125 C13.09425425 1.85983758 14.34420352 1.35754215 15.58203125 0.828125 C20.59789791 -1.21140055 25.49215649 -1.40672015 30.83203125 -0.671875 C35.26515475 1.46552383 37.95733771 3.7455408 39.83203125 8.328125 C40.5413728 14.50952995 39.55459537 19.25093153 35.83203125 24.328125 C34.60419922 25.23304688 34.60419922 25.23304688 33.3515625 26.15625 C30.24677794 28.83262243 29.48818213 30.95852643 28.20703125 34.828125 C27.789375 36.0759375 27.37171875 37.32375 26.94140625 38.609375 C25.977949 41.83899228 25.18201827 45.0391595 24.45703125 48.328125 C22.13032668 58.19017961 17.18146362 69.50152397 8.91015625 75.7890625 C3.86191313 78.31318406 -0.54119322 79.0402273 -6.16796875 78.328125 C-7.15796875 77.833125 -7.15796875 77.833125 -8.16796875 77.328125 C-8.49796875 77.988125 -8.82796875 78.648125 -9.16796875 79.328125 C-9.51859375 78.915625 -9.86921875 78.503125 -10.23046875 78.078125 C-12.40134538 76.1173332 -14.76236303 74.90829132 -17.31640625 73.51171875 C-20.39562607 71.54335671 -22.68374237 68.99412404 -25.16796875 66.328125 C-22.42699883 73.78965422 -18.45671135 79.6837537 -11.16796875 83.328125 C-12.45844783 91.42757921 -12.45844783 91.42757921 -14.79296875 94.390625 C-19.48545248 96.24292121 -23.1263299 96.18825989 -27.69921875 94.26171875 C-33.49703932 91.05720045 -38.16547809 87.33310633 -41.16796875 81.328125 C-41.8722475 78.55827703 -42.06509551 76.20857571 -42.16796875 73.328125 C-43.48796875 72.998125 -44.80796875 72.668125 -46.16796875 72.328125 C-45.55574463 72.2264502 -44.94352051 72.12477539 -44.31274414 72.02001953 C-40.06683516 70.65030911 -38.41278568 65.77300541 -36.48242188 62.01928711 C-34.69766214 58.05512781 -34.07601282 55.91291665 -34.765625 51.52734375 C-35.47255524 49.69405112 -36.18113539 47.86024137 -36.96240234 46.05737305 C-40.75905825 37.16937593 -40.75802846 26.70780932 -37.54296875 17.578125 C-34.38374009 11.02606274 -29.53061196 8.5094466 -23.16796875 5.328125 C-21.09377208 3.73790755 -19.14760213 2.03780837 -17.16796875 0.328125 C-12.50388862 -2.00391506 -4.90471644 -1.52002023 0 0 Z " fill="#FABDB5" transform="translate(425.16796875,409.671875)"/>
<path d="M0 0 C1.64574566 -0.02688151 3.29161413 -0.04634123 4.9375 -0.0625 C6.31228516 -0.07990234 6.31228516 -0.07990234 7.71484375 -0.09765625 C10 0 10 0 11 1 C11.14115161 3.67058851 11.04247107 6.32432238 11 9 C16.28199593 10.19988045 16.28199593 10.19988045 21 8 C22.9375 8.0625 22.9375 8.0625 25 9 C27.25 11.5625 27.25 11.5625 29 14 C28.690625 14.7425 28.38125 15.485 28.0625 16.25 C26.48861691 20.32357977 25.63615236 22.75691846 27 27 C29.31 27.66 31.62 28.32 34 29 C34.02689216 30.47906892 34.04634621 31.95827483 34.0625 33.4375 C34.07410156 34.26121094 34.08570313 35.08492188 34.09765625 35.93359375 C34 38 34 38 33 39 C30.32941149 39.14115161 27.67567762 39.04247107 25 39 C24.09129001 44.63777171 24.09129001 44.63777171 24.6875 50.25 C25 53 25 53 23.4375 55.4375 C21 57 21 57 17.8125 56.8125 C15 56 15 56 14 55 C11.32941149 54.85884839 8.67567762 54.95752893 6 55 C5.67 57.31 5.34 59.62 5 62 C3.35425434 62.02688151 1.70838587 62.04634123 0.0625 62.0625 C-0.85402344 62.07410156 -1.77054687 62.08570313 -2.71484375 62.09765625 C-5 62 -5 62 -6 61 C-6.04092937 58.66702567 -6.04241723 56.33294775 -6 54 C-11.02125926 53.22083908 -14.97703996 52.86983399 -20 54 C-22.0625 51.8125 -22.0625 51.8125 -24 49 C-23.70731707 44.70731707 -23.70731707 44.70731707 -22 43 C-22.1018371 41.08575543 -22.1018371 41.08575543 -22.4375 38.9375 C-22.623125 37.638125 -22.80875 36.33875 -23 35 C-24.98 34.34 -26.96 33.68 -29 33 C-29 29.7 -29 26.4 -29 23 C-26.03 22.67 -23.06 22.34 -20 22 C-19.08702692 17.02936879 -19.08702692 12.97063121 -20 8 C-18.375 6.4375 -18.375 6.4375 -16 5 C-12.90128963 5.1936694 -10.66732852 5.63600262 -7.9375 7.125 C-5.32756565 8.30368003 -3.69933686 7.74981579 -1 7 C-0.67 4.69 -0.34 2.38 0 0 Z " fill="#F16559" transform="translate(362,310)"/>
<path d="M0 0 C5.11214419 2.5560721 7.99728208 6.69868785 10 12 C10 12.99 10 13.98 10 15 C11.299375 14.87625 11.299375 14.87625 12.625 14.75 C16.87286138 15.0646564 18.7321042 16.31306345 22 19 C26.32983529 24.858616 25.66892027 31.01015893 25 38 C23.25116953 45.60790656 19.55074572 52.68096452 15 59 C14.01 59.495 14.01 59.495 13 60 C12.25 57.25 12.25 57.25 12 54 C13.31129922 52.64499081 14.64691687 51.31328657 16 50 C17.29540172 45.41626388 17.29540172 45.41626388 15.9375 41.0625 C13.06792834 39.48886393 11.21125525 39.46479079 8 40 C6.0645852 42.39056942 6.0645852 42.39056942 5 45 C3.08984375 44.2734375 3.08984375 44.2734375 1 43 C0.12890625 40.9765625 0.12890625 40.9765625 -0.4375 38.625 C-1.40249473 35.42555222 -2.0177236 33.97932247 -4.25 31.375 C-7.97699344 29.51150328 -9.95706441 30.12550923 -14 31 C-16.22572904 32.11420049 -18.41353402 33.30661079 -20.5625 34.5625 C-27.62539483 38.3642746 -33.97335844 39.39941447 -42 38 C-47.53126675 36.08365562 -51.33270024 32.39662516 -54.14453125 27.30078125 C-56.14298502 21.9259444 -56.17537282 16.71494566 -53.890625 11.4375 C-50.74701623 6.29955879 -47.5836316 3.25304433 -42 1 C-36.43938792 0.30492349 -33.04204533 1.79983476 -28 4 C-23.88472035 4.62623821 -21.53129849 3.83944877 -17.9375 2 C-12.10213621 -0.74489193 -6.32829545 -1.07646263 0 0 Z " fill="#923D40" transform="translate(610,437)"/>
<path d="M0 0 C0.15855469 1.0415625 0.31710937 2.083125 0.48046875 3.15625 C4.15075805 26.16937021 11.32315605 50.02471643 29.86328125 65.46875 C43.21437895 75.03662988 58.06100668 75.35050106 73.75 73.125 C101.34562639 68.03294989 128.25312826 54.98971608 151.15527344 39.11157227 C152.73577461 38.02266854 154.36342033 37.00264762 156 36 C156.66 36.33 157.32 36.66 158 37 C150.88538214 42.3503855 143.65668306 47.19489994 135.9375 51.625 C134.91237305 52.21692139 133.88724609 52.80884277 132.83105469 53.41870117 C111.69418435 65.54696442 90.39567116 77.6247094 67.25 85.5 C66.53521484 85.74363281 65.82042969 85.98726562 65.08398438 86.23828125 C52.04418249 90.4494354 35.88164371 91.06320162 23 86 C7.71491738 78.13387371 -1.57421128 65.27136923 -6.890625 49.12890625 C-10.90210622 35.34184259 -6.85408646 20.39914214 -4.2890625 6.66015625 C-4.09006348 5.59418213 -3.89106445 4.52820801 -3.68603516 3.42993164 C-3.45964355 2.6280542 -3.23325195 1.82617676 -3 1 C-1 0 -1 0 0 0 Z " fill="#F16155" transform="translate(293,581)"/>
<path d="M0 0 C0.56332031 0.27328125 1.12664062 0.5465625 1.70703125 0.828125 C5.46476837 2.63183882 7.70027039 2.7630472 11.83203125 2.328125 C13.09425425 1.85983758 14.34420352 1.35754215 15.58203125 0.828125 C20.59789791 -1.21140055 25.49215649 -1.40672015 30.83203125 -0.671875 C35.26515475 1.46552383 37.95733771 3.7455408 39.83203125 8.328125 C40.55306828 14.61144773 39.47124825 19.11073622 35.83203125 24.328125 C34.59453125 25.2871875 34.59453125 25.2871875 33.33203125 26.265625 C29.709854 29.25392123 28.4821359 33.01388492 26.83203125 37.328125 C26.50203125 37.328125 26.17203125 37.328125 25.83203125 37.328125 C25.33703125 33.863125 25.33703125 33.863125 24.83203125 30.328125 C24.26097656 30.24175781 23.68992187 30.15539062 23.1015625 30.06640625 C17.84600861 29.15566639 13.20160808 27.7513875 8.26953125 25.703125 C3.06268415 23.64246466 -1.58295039 21.9465062 -7.16796875 23.328125 C-12.56606084 26.68693785 -13.53284351 31.94193746 -15.078125 37.78125 C-16.16796875 40.328125 -16.16796875 40.328125 -18.2890625 41.1875 C-18.90910156 41.23390625 -19.52914063 41.2803125 -20.16796875 41.328125 C-20.64234375 40.19375 -21.11671875 39.059375 -21.60546875 37.890625 C-22.80418958 34.57072334 -22.80418958 34.57072334 -24.16796875 33.328125 C-28.27626774 32.96556565 -28.27626774 32.96556565 -32.04296875 34.390625 C-33.81593506 37.44406697 -33.53140247 39.87550462 -33.16796875 43.328125 C-32.18065133 44.67087669 -31.18202132 46.00544773 -30.16796875 47.328125 C-30.42493044 50.02622276 -30.95972221 51.91163193 -32.16796875 54.328125 C-32.82796875 54.328125 -33.48796875 54.328125 -34.16796875 54.328125 C-39.39537464 42.54779243 -41.97605257 30.14788165 -37.54296875 17.578125 C-34.38374009 11.02606274 -29.53061196 8.5094466 -23.16796875 5.328125 C-21.09377208 3.73790755 -19.14760213 2.03780837 -17.16796875 0.328125 C-12.50388862 -2.00391506 -4.90471644 -1.52002023 0 0 Z " fill="#8D3B3D" transform="translate(425.16796875,409.671875)"/>
<path d="M0 0 C3.93643511 3.17917728 6.56727734 6.07241724 7.6875 11.0625 C6.46059892 16.3047137 4.41782121 19.75508382 0.4375 23.25 C-8.7890123 27.94713354 -17.20540437 28.32948662 -27.38696289 27.62597656 C-33.60205444 27.37392746 -36.74394306 28.55107573 -41.41723633 32.6940918 C-43 34 -43 34 -45 34 C-44.34 30.37 -43.68 26.74 -43 23 C-44.32 22.34 -45.64 21.68 -47 21 C-50.22157101 17.24150049 -51.80375716 14.07830622 -51.50390625 9.01953125 C-50.51136917 5.04168884 -48.13738838 2.5278753 -45 0 C-31.97448192 -7.66206946 -12.97900426 -7.61851028 0 0 Z " fill="#F98A7C" transform="translate(700,411)"/>
<path d="M0 0 C6.77721214 3.83615781 9.60443534 10.81330601 12 18 C12.97837217 28.23575446 13.76852661 39.59451994 7 48 C3.6531576 51.19117531 1.36382874 52.86886262 -3.25 53.3125 C-9.03452719 52.83045607 -11.806653 50.27660377 -15.6875 46.125 C-22.39862689 37.05590961 -22.77556662 27.93661335 -22 17 C-20.62390452 10.3649409 -17.62034626 5.43010471 -12.28125 1.2265625 C-8.18475528 -0.97600487 -4.47837036 -1.03868086 0 0 Z " fill="#FBE9E7" transform="translate(797,461)"/>
<path d="M0 0 C0.97582031 0.00902344 1.95164062 0.01804687 2.95703125 0.02734375 C4.06111328 0.04474609 4.06111328 0.04474609 5.1875 0.0625 C4.1875 3.0625 4.1875 3.0625 2.67222595 4.10179138 C2.01847488 4.41423294 1.36472382 4.7266745 0.69116211 5.04858398 C-0.42500488 5.5913649 -0.42500488 5.5913649 -1.5637207 6.14511108 C-2.37929443 6.52906036 -3.19486816 6.91300964 -4.03515625 7.30859375 C-4.87965332 7.71622955 -5.72415039 8.12386536 -6.59423828 8.54385376 C-9.35013089 9.87186763 -12.11245 11.18589915 -14.875 12.5 C-17.70050402 13.8569391 -20.52439244 15.21720171 -23.34825134 16.57756042 C-25.21897357 17.47836362 -27.09028093 18.37795266 -28.96217346 19.27632141 C-37.24968494 23.25673155 -45.4691392 27.36010519 -53.65454102 31.54663086 C-70.32027718 39.98961099 -70.32027718 39.98961099 -79.7734375 37.18359375 C-81.56078034 36.57509389 -83.34778732 35.96530579 -85.12719727 35.33398438 C-91.44308003 33.11067182 -97.85608534 31.32989306 -104.3125 29.5625 C-112.44200834 27.3257397 -120.44997968 24.94361431 -128.421875 22.1953125 C-134.15954602 20.27834868 -139.98162294 18.670708 -145.8125 17.0625 C-143.39666081 13.88541981 -142.20980655 13.11687277 -138.1875 12.56640625 C-136.72904998 12.559994 -135.27030971 12.58131442 -133.8125 12.625 C-133.02576904 12.63966309 -132.23903809 12.65432617 -131.4284668 12.66943359 C-116.33815666 13.13603698 -102.46848773 15.5057115 -88.8125 22.0625 C-87.7709375 22.56136719 -86.729375 23.06023438 -85.65625 23.57421875 C-80.10759577 26.41566668 -75.93494327 29.3829698 -71.8125 34.0625 C-68.13287312 32.5643074 -66.26302961 30.47192454 -63.75 27.4375 C-49.87312351 11.80917308 -30.66106768 5.51651343 -10.8125 1.0625 C-9.92820312 0.85625 -9.04390625 0.65 -8.1328125 0.4375 C-5.38945725 -0.00587055 -2.77737963 -0.03346241 0 0 Z " fill="#FBE6E3" transform="translate(643.8125,572.9375)"/>
<path d="M0 0 C4.91725014 4.48337513 6.92377477 9.94881049 7.36328125 16.4765625 C7.65249941 27.06998805 6.61379421 34.96866865 -0.3125 43.4375 C-4.55767626 47.87970976 -7.73145753 49.00287651 -13.8125 49.375 C-17.34768628 49.30135029 -19.52371561 48.96708359 -22.3125 46.75 C-28.6606572 39.78251039 -29.29549787 33.90293214 -29.21875 24.68359375 C-28.28267927 14.48255018 -23.22695834 6.5461308 -15.625 0 C-10.49620002 -1.98158181 -5.14252083 -1.90049683 0 0 Z " fill="#FBE9E6" transform="translate(239.875,437.0625)"/>
<path d="M0 0 C4.56971969 2.04964913 7.32905908 5.18627642 10.6875 8.8125 C11.28111328 9.42931641 11.87472656 10.04613281 12.48632812 10.68164062 C17.78155319 16.36329033 17.78155319 16.36329033 18 21 C18.10054687 22.94326172 18.10054687 22.94326172 18.203125 24.92578125 C18.45945765 39.61330896 18.45945765 39.61330896 15 46 C10.67982303 48.16008848 4.87016641 47.18496248 0.125 47.1875 C-1.67130859 47.20586914 -1.67130859 47.20586914 -3.50390625 47.22460938 C-4.65503906 47.22654297 -5.80617188 47.22847656 -6.9921875 47.23046875 C-8.04776855 47.23457764 -9.10334961 47.23868652 -10.19091797 47.24291992 C-12.98484466 47.00131058 -14.62497794 46.44093238 -17 45 C-16 42 -16 42 -13 40 C-13.69867187 39.90203125 -14.39734375 39.8040625 -15.1171875 39.703125 C-16.02726563 39.55359375 -16.93734375 39.4040625 -17.875 39.25 C-18.77992188 39.11078125 -19.68484375 38.9715625 -20.6171875 38.828125 C-23 38 -23 38 -24.3203125 35.921875 C-24.54460938 35.28765625 -24.76890625 34.6534375 -25 34 C-22.36 33.01 -19.72 32.02 -17 31 C-17.95712891 30.63648438 -17.95712891 30.63648438 -18.93359375 30.265625 C-20.17302734 29.76289062 -20.17302734 29.76289062 -21.4375 29.25 C-22.26121094 28.92515625 -23.08492187 28.6003125 -23.93359375 28.265625 C-26 27 -26 27 -26.84765625 24.921875 C-26.89792969 24.28765625 -26.94820312 23.6534375 -27 23 C-25.41727399 21.41727399 -23.61965997 21.65264253 -21.4375 21.4375 C-20.19806641 21.31181641 -20.19806641 21.31181641 -18.93359375 21.18359375 C-18.29550781 21.12300781 -17.65742187 21.06242188 -17 21 C-18.98 19.68 -20.96 18.36 -23 17 C-22.67 15.68 -22.34 14.36 -22 13 C-13.7943963 12.70400628 -6.07562173 13.56205146 2 15 C1.505 13.80375 1.01 12.6075 0.5 11.375 C-0.85052149 7.78847358 -1.37726749 4.86699177 -1 1 C-0.67 0.67 -0.34 0.34 0 0 Z " fill="#FBB8AE" transform="translate(648,618)"/>
<path d="M0 0 C3.62351544 3.03071128 5.5069975 4.94230523 5.97265625 9.78515625 C5.60805222 14.16040462 4.43718375 16.18638779 1.66015625 19.53515625 C1.00015625 19.53515625 0.34015625 19.53515625 -0.33984375 19.53515625 C0.15515625 24.48515625 0.15515625 24.48515625 0.66015625 29.53515625 C-6.08984375 25.78515625 -6.08984375 25.78515625 -8.33984375 23.53515625 C-10.73446062 23.32314324 -10.73446062 23.32314324 -13.50390625 23.48046875 C-15.06431641 23.51720703 -15.06431641 23.51720703 -16.65625 23.5546875 C-18.838831 23.6242621 -21.02116344 23.70220516 -23.203125 23.7890625 C-31.36966833 23.95982663 -36.47149883 22.82324943 -42.83984375 17.41015625 C-45.07888221 13.11866586 -45.48029705 9.25557554 -44.33984375 4.53515625 C-41.04850892 0.14969921 -36.12635752 -2.76821531 -30.83984375 -4.08984375 C-20.76453847 -5.16934074 -8.89813064 -5.57061601 0 0 Z " fill="#FA9286" transform="translate(352.33984375,394.46484375)"/>
<path d="M0 0 C0.80501953 -0.00306152 1.61003906 -0.00612305 2.43945312 -0.00927734 C12.72804972 0.28360099 23.54935046 3.90790031 32.125 9.625 C31.795 10.945 31.465 12.265 31.125 13.625 C25.33601581 13.83174944 20.69567277 13.21662079 15.125 11.625 C15.125 15.585 15.125 19.545 15.125 23.625 C13.805 23.625 12.485 23.625 11.125 23.625 C11.16625 24.73875 11.2075 25.8525 11.25 27 C11.125 30.625 11.125 30.625 9.125 32.625 C6.5 32.75 6.5 32.75 4.125 32.625 C4.125 30.645 4.125 28.665 4.125 26.625 C-1.44143112 27.80934705 -5.12480862 29.95788809 -9.6640625 33.3828125 C-12.26564441 34.84447866 -13.93693034 34.86210738 -16.875 34.625 C-17.02195312 33.87476563 -17.16890625 33.12453125 -17.3203125 32.3515625 C-18.79243887 25.63392836 -20.77569665 20.46339905 -24.66796875 14.78125 C-25.875 12.625 -25.875 12.625 -25.875 8.625 C-24.44140625 7.24609375 -24.44140625 7.24609375 -22.4375 6.0625 C-21.79941406 5.66933594 -21.16132813 5.27617188 -20.50390625 4.87109375 C-13.79467762 1.69093932 -7.43035941 0.01741985 0 0 Z " fill="#FCC1B9" transform="translate(478.875,564.375)"/>
<path d="M0 0 C1.32 0.33 2.64 0.66 4 1 C4 4.96 4 8.92 4 13 C5.60875 12.175 7.2175 11.35 8.875 10.5 C14.44744895 7.93421611 18.94335232 7.4087871 25 8 C24.9375 10.1875 24.9375 10.1875 24 13 C21.8282781 14.93157957 19.47398953 16.48201687 17 18 C17.845625 17.505 18.69125 17.01 19.5625 16.5 C23.33796832 14.85252292 25.92817548 14.75569053 30 15 C30.495 16.98 30.495 16.98 31 19 C27.80331012 21.6486859 24.60513403 23.93992341 21 26 C23.97 25.67 26.94 25.34 30 25 C30.495 27.475 30.495 27.475 31 30 C29.02 31.32 27.04 32.64 25 34 C25.495 34.45375 25.99 34.9075 26.5 35.375 C28 37 28 37 28 39 C26.44148245 39.82011312 24.87798284 40.63076213 23.3125 41.4375 C22.00732422 42.11619141 22.00732422 42.11619141 20.67578125 42.80859375 C15.84588164 44.95913299 11.26119748 45.37579982 6 45 C1.43473316 42.92294537 -0.14500611 40.54392121 -2.25 36.0625 C-2.75015625 35.02222656 -3.2503125 33.98195313 -3.765625 32.91015625 C-7.21599186 24.77558881 -6.97586357 16.24621496 -3.8671875 8.015625 C-2.69043294 5.28046575 -1.41154366 2.62143823 0 0 Z " fill="#FCC0B7" transform="translate(505,634)"/>
<path d="M0 0 C0.62132812 0.350625 1.24265625 0.70125 1.8828125 1.0625 C5.65463894 3.04163327 8.77920047 3.71011566 13.0078125 4.0625 C13.0078125 6.3725 13.0078125 8.6825 13.0078125 11.0625 C12.15960937 11.39121094 11.31140625 11.71992187 10.4375 12.05859375 C-3.9186163 17.87992003 -14.82421958 25.22654851 -25.4453125 36.53515625 C-27.9921875 39.0625 -27.9921875 39.0625 -29.9921875 39.0625 C-30.29511719 38.41023437 -30.59804688 37.75796875 -30.91015625 37.0859375 C-31.32910156 36.21195313 -31.74804688 35.33796875 -32.1796875 34.4375 C-32.58574219 33.57898438 -32.99179687 32.72046875 -33.41015625 31.8359375 C-35.29365759 28.53399689 -37.49497698 25.92484886 -39.9921875 23.0625 C-33.02172223 14.97286753 -26.51330067 8.18497024 -16.9921875 3.0625 C-16.08984375 2.546875 -15.1875 2.03125 -14.2578125 1.5 C-8.82627939 -1.45681092 -5.86980344 -2.76226044 0 0 Z " fill="#FCBFB6" transform="translate(584.9921875,510.9375)"/>
<path d="M0 0 C4.83763525 2.32923179 7.63619663 5.18147775 10 10 C11.1747679 16.46122346 9.55706443 21.58651143 6 27 C5.34 27.66 4.68 28.32 4 29 C3.67 30.98 3.34 32.96 3 35 C-1.62 35.33 -6.24 35.66 -11 36 C-11.33 34.02 -11.66 32.04 -12 30 C-13.62339805 28.29115995 -15.29319053 26.62553283 -17 25 C-20.20111398 20.14313741 -20.90713696 15.67725044 -20 10 C-15.76913806 1.37555065 -9.20686906 -1.46950027 0 0 Z " fill="#FA9C97" transform="translate(620,337)"/>
<path d="M0 0 C4.83831756 2.3295603 7.6006196 5.20123921 10 10 C10.94742987 15.32263972 10.01777172 19.47334242 7 24 C4.51083953 26.51705022 1.92627109 28.57441599 -1.3125 30.0625 C-3.22123344 30.87900069 -3.22123344 30.87900069 -3.75 33.125 C-3.8325 33.74375 -3.915 34.3625 -4 35 C-13.83050847 34.15254237 -13.83050847 34.15254237 -18 31 C-18.61326128 28.97019154 -18.80890735 27.15128981 -18.89453125 25.03515625 C-19.0050836 22.9019053 -19.48015413 21.06738703 -20 19 C-20.51581629 14.34919742 -20.46070307 10.93912548 -18.375 6.6875 C-12.91281321 0.50660442 -8.087747 -1.29087819 0 0 Z " fill="#FAA49E" transform="translate(532,375)"/>
<path d="M0 0 C1.98 0 3.96 0 6 0 C6.33 1.32 6.66 2.64 7 4 C9.31 3.34 11.62 2.68 14 2 C15.5625 3.0625 15.5625 3.0625 17 5 C16.6875 8.6875 16.6875 8.6875 16 12 C17.65 12 19.3 12 21 12 C21 13.98 21 15.96 21 18 C19.68 18 18.36 18 17 18 C17.185625 19.27875 17.37125 20.5575 17.5625 21.875 C18.125 25.75 18.125 25.75 17 28 C14.69 28 12.38 28 10 28 C9.01 30.475 9.01 30.475 8 33 C6.35 33 4.7 33 3 33 C2.34 31.68 1.68 30.36 1 29 C-0.11375 29.20625 -1.2275 29.4125 -2.375 29.625 C-3.57125 29.74875 -4.7675 29.8725 -6 30 C-8 28 -8 28 -8.1953125 26.0546875 C-8.13020833 24.03645833 -8.06510417 22.01822917 -8 20 C-9.32 20 -10.64 20 -12 20 C-12 18.02 -12 16.04 -12 14 C-11.01 13.67 -10.02 13.34 -9 13 C-9.20625 11.88625 -9.4125 10.7725 -9.625 9.625 C-9.74875 8.42875 -9.8725 7.2325 -10 6 C-8 4 -8 4 -4.375 3.875 C-2.704375 3.936875 -2.704375 3.936875 -1 4 C-0.67 2.68 -0.34 1.36 0 0 Z " fill="#F0675C" transform="translate(416,346)"/>
<path d="M0 0 C3.43615111 2.12017834 5.80717883 4.09622164 7 8 C7.46225901 12.77667642 7.49973779 15.01903323 5.3125 19.3125 C2.41430219 22.68067583 0.36159162 24.6064014 -4.109375 25.3515625 C-8.22604338 25.61403465 -11.12082704 25.38942482 -14.4375 22.8125 C-18.15758138 18.72948385 -19.22739277 16.03144344 -19.0625 10.5625 C-18.55226803 6.74213812 -17.4694516 5.0133019 -14.5625 2.5 C-9.53062915 -1.28178185 -6.11163538 -1.37458927 0 0 Z " fill="#F9E2DE" transform="translate(370,329)"/>
<path d="M0 0 C0.99 0 1.98 0 3 0 C3.44730469 1.10859375 3.89460938 2.2171875 4.35546875 3.359375 C4.96540627 4.82322504 5.57612472 6.28674986 6.1875 7.75 C6.62545898 8.84441406 6.62545898 8.84441406 7.07226562 9.9609375 C8.98848829 14.49393735 10.70745551 17.28891927 15 20 C15.99 20.33 16.98 20.66 18 21 C18 21.66 18 22.32 18 23 C8.14687878 23.41698162 -1.0374489 23.4458747 -9 17 C-7.85578332 14.19146815 -6.79620146 12.81658131 -4.5 10.75 C-1.26779974 7.19457971 -0.87081001 4.67070824 0 0 Z " fill="#F46356" transform="translate(461,600)"/>
<path d="M0 0 C3.26507188 1.63253594 4.171867 5.13235132 5.6875 8.3125 C8.75617792 14.63349437 12.05436915 20.66387865 15.75 26.64453125 C17 29 17 29 17 32 C18.670625 31.7525 18.670625 31.7525 20.375 31.5 C25.37575885 30.93901744 30.34901681 30.8870167 35.375 30.875 C36.17212402 30.87048828 36.96924805 30.86597656 37.79052734 30.86132812 C41.11115404 30.86980452 43.82870287 30.94290096 47 32 C47 32.66 47 33.32 47 34 C46.42483643 33.97381592 45.84967285 33.94763184 45.25708008 33.9206543 C27.54188465 33.23388404 11.30094833 35.5190729 -6 39 C-5.92998779 39.72372803 -5.85997559 40.44745605 -5.7878418 41.19311523 C-3.37763227 66.75071277 -3.37763227 66.75071277 -8.57421875 74.28125 C-9.27998047 75.13203125 -9.27998047 75.13203125 -10 76 C-10 75.34 -10 74.68 -10 74 C-10.66 73.67 -11.32 73.34 -12 73 C-11.34 73 -10.68 73 -10 73 C-8.38324499 67.31569467 -7.6863642 62.27191781 -7.75 56.375 C-7.74226562 55.65054688 -7.73453125 54.92609375 -7.7265625 54.1796875 C-7.74274815 49.7124491 -8.43607207 46.23253513 -10 42 C-10 38.89448334 -9.4606285 37.64738916 -8 35 C-7.67 35.66 -7.34 36.32 -7 37 C-6.26136719 36.79503906 -5.52273438 36.59007812 -4.76171875 36.37890625 C-3.74722656 36.10949219 -2.73273437 35.84007812 -1.6875 35.5625 C-0.70136719 35.29566406 0.28476562 35.02882813 1.30078125 34.75390625 C6.17423508 33.76068915 11.04558545 33.37382347 16 33 C15.62190186 32.30438965 15.24380371 31.6087793 14.85424805 30.89208984 C13.13096924 27.72028464 11.4092212 24.54765096 9.6875 21.375 C8.79514648 19.73337891 8.79514648 19.73337891 7.88476562 18.05859375 C7.30791016 16.99511719 6.73105469 15.93164062 6.13671875 14.8359375 C5.34334106 13.37486572 5.34334106 13.37486572 4.53393555 11.88427734 C4.02773682 10.93246582 3.52153809 9.9806543 3 9 C2.44030518 7.95150879 1.88061035 6.90301758 1.30395508 5.82275391 C0 3 0 3 0 0 Z " fill="#F7786F" transform="translate(673,591)"/>
<path d="M0 0 C1.86344471 2.79516706 2.42884149 4.22169941 3.11328125 7.39453125 C3.40344116 8.69487305 3.40344116 8.69487305 3.69946289 10.02148438 C3.90176514 10.94251953 4.10406738 11.86355469 4.3125 12.8125 C7.39452223 29.33769373 7.39452223 29.33769373 16 43 C23.04586308 44.59863328 30.62351473 41.84515694 37.375 40 C39.12393555 39.5366626 39.12393555 39.5366626 40.90820312 39.06396484 C50.60618346 36.46285951 60.23099923 33.61239282 69.80224609 30.578125 C76.55926342 28.49423377 82.93246475 27.3281105 90 27 C87.24967627 28.83354915 85.44881959 29.58766639 82.3359375 30.48046875 C80.91825073 30.89087402 80.91825073 30.89087402 79.47192383 31.30957031 C78.44993896 31.59928711 77.4279541 31.88900391 76.375 32.1875 C75.31627686 32.49139648 74.25755371 32.79529297 73.16674805 33.10839844 C69.77947051 34.07811408 66.3898684 35.03938466 63 36 C61.88866699 36.31727051 60.77733398 36.63454102 59.63232422 36.96142578 C22.86438755 47.45651921 22.86438755 47.45651921 16 46 C6.25540595 39.57742665 3.296738 22.83168111 1 12 C0.4392833 7.99312662 0.08722748 4.04418332 0 0 Z " fill="#F2645B" transform="translate(354,544)"/>
<path d="M0 0 C1.32 0.33 2.64 0.66 4 1 C3.34 6.61 2.68 12.22 2 18 C2.99 18 3.98 18 5 18 C5 18.99 5 19.98 5 21 C0.38 21.33 -4.24 21.66 -9 22 C-9 21.01 -9 20.02 -9 19 C-7.68 19 -6.36 19 -5 19 C-5.97312452 13.12284005 -7.14432669 9.65339882 -11 5 C-10.75 2.6875 -10.75 2.6875 -10 1 C-8.906875 1.20625 -7.81375 1.4125 -6.6875 1.625 C-2.9161599 2.40346525 -2.9161599 2.40346525 0 0 Z " fill="#EB8F8B" transform="translate(618,351)"/>
<path d="M0 0 C0.9590625 0.433125 0.9590625 0.433125 1.9375 0.875 C5.88410292 2.3247725 9.8874607 3.15778062 14 4 C14 6.31 14 8.62 14 11 C12.42274653 11.70133599 10.83788667 12.385583 9.25 13.0625 C8.36828125 13.44535156 7.4865625 13.82820312 6.578125 14.22265625 C3.78272851 15.06551065 2.67059944 15.07160608 0 14 C-0.99 13.34 -1.98 12.68 -3 12 C-5.27912938 11.54605448 -5.27912938 11.54605448 -7.6875 11.375 C-8.49574219 11.30023437 -9.30398438 11.22546875 -10.13671875 11.1484375 C-10.75160156 11.09945312 -11.36648438 11.05046875 -12 11 C-8.19588166 7.08060535 -4.18423892 3.50897269 0 0 Z " fill="#FAE5E1" transform="translate(584,511)"/>
<path d="M0 0 C2.475 0.99 2.475 0.99 5 2 C5 2.66 5 3.32 5 4 C8.465 3.505 8.465 3.505 12 3 C12.66 4.32 13.32 5.64 14 7 C13.071875 7.70125 12.14375 8.4025 11.1875 9.125 C8.09831629 11.68836521 6.50396646 14.24008384 5 18 C5 18.66 5 19.32 5 20 C5.66 20.33 6.32 20.66 7 21 C7 21.66 7 22.32 7 23 C2.02693484 22.50269348 -1.63799813 21.44697666 -6 19 C-6 18.34 -6 17.68 -6 17 C-4.68 17 -3.36 17 -2 17 C-1.24921041 10.23463418 -1.24921041 10.23463418 -1 3.4375 C-1 1 -1 1 0 0 Z " fill="#B85D5A" transform="translate(520,387)"/>
<path d="M0 0 C1.875 1.1875 1.875 1.1875 3 3 C3.5 5.9375 3.5 5.9375 3 9 C0.875 11.4375 0.875 11.4375 -2 13 C-5.54334961 13 -7.25666783 12.64741834 -9.9375 10.3125 C-11.41325591 7.10056066 -11.06444212 5.33525198 -10 2 C-6.88033777 -1.58183441 -4.3851177 -1.30620527 0 0 Z " fill="#F7DCD7" transform="translate(424,356)"/>
<path d="M0 0 C2.58107228 3.07781902 3.78392553 5.85719452 4.9375 9.69140625 C5.27523438 10.80193359 5.61296875 11.91246094 5.9609375 13.05664062 C6.47527344 14.79204102 6.47527344 14.79204102 7 16.5625 C7.34289062 17.69236328 7.68578125 18.82222656 8.0390625 19.98632812 C14.46355733 41.28279287 14.46355733 41.28279287 14 47 C12.35 46.67 10.7 46.34 9 46 C8.86948242 45.19481934 8.73896484 44.38963867 8.60449219 43.56005859 C8.10409842 40.49854262 7.5961543 37.43839053 7.08349609 34.37890625 C6.75968867 32.43321712 6.44416859 30.48615445 6.12890625 28.5390625 C4.81830321 20.75487477 3.09814147 13.35382068 0.77832031 5.81494141 C0 3 0 3 0 0 Z " fill="#F16258" transform="translate(439,527)"/>
<path d="M0 0 C0.42410156 0.38671875 0.84820312 0.7734375 1.28515625 1.171875 C5.31279857 4.74806731 9.26107408 7.44827066 14 10 C14.99 10.66 15.98 11.32 17 12 C16.67 14.64 16.34 17.28 16 20 C15.67 19.34 15.34 18.68 15 18 C14.24074219 17.71511719 13.48148437 17.43023437 12.69921875 17.13671875 C7.54573183 14.96643699 3.30781496 9.93591113 1.04296875 4.8515625 C0.5 2.9375 0.5 2.9375 0 0 Z " fill="#FC9488" transform="translate(399,475)"/>
<path d="M0 0 C0.33 0.99 0.66 1.98 1 3 C-0.24203695 4.46512126 -1.49397056 5.92185645 -2.75 7.375 C-3.44609375 8.18710937 -4.1421875 8.99921875 -4.859375 9.8359375 C-7.95178325 12.96220424 -9.85537903 13.95597612 -14.25 14.125 C-15.1575 14.08375 -16.065 14.0425 -17 14 C-17 12.02 -17 10.04 -17 8 C-15.91332031 7.76216797 -15.91332031 7.76216797 -14.8046875 7.51953125 C-8.58631093 6.0188297 -4.54097559 4.54097559 0 0 Z " fill="#FC9A8D" transform="translate(615,507)"/>
<path d="M0 0 C1.58468677 0.45363171 3.16769924 0.91311452 4.75 1.375 C5.63171875 1.63023437 6.5134375 1.88546875 7.421875 2.1484375 C9.76080572 2.9209934 11.83442562 3.83625676 14 5 C13.67 6.65 13.34 8.3 13 10 C9.94703274 10.29355454 7.04496069 10.4192717 4 10 C1.4375 7.8125 1.4375 7.8125 0 5 C-0.05592955 3.33427203 -0.06437769 1.66542286 0 0 Z " fill="#D19E9C" transform="translate(512,407)"/>
<path d="M0 0 C0.99 0 1.98 0 3 0 C3.33 0.99 3.66 1.98 4 3 C6.95784231 4.22393475 8.99727245 3.96516243 12 3 C10.85702169 5.80549222 9.70762693 7.28506374 7.5 9.4375 C5.0481606 11.95063538 4.03839869 13.69600416 3 17 C1.68 17 0.36 17 -1 17 C-0.83628906 16.30519531 -0.67257812 15.61039062 -0.50390625 14.89453125 C0.04095996 11.7647184 0.09738483 8.86201917 0.0625 5.6875 C0.05347656 4.61886719 0.04445313 3.55023438 0.03515625 2.44921875 C0.02355469 1.64097656 0.01195312 0.83273437 0 0 Z " fill="#F69896" transform="translate(520,389)"/>
<path d="M0 0 C0.36337162 3.27034459 0.28544288 4.60883753 -1.6875 7.3125 C-4 9 -4 9 -6.5 9.4375 C-9.5201669 8.90897079 -10.90730875 8.24770541 -13 6 C-13.10546875 3.38671875 -13.10546875 3.38671875 -13 1 C-11.39602723 0.83147753 -9.7918131 0.66525114 -8.1875 0.5 C-7.29417969 0.4071875 -6.40085937 0.314375 -5.48046875 0.21875 C-3 0 -3 0 0 0 Z " fill="#883E42" transform="translate(623,373)"/>
<path d="M0 0 C1.98 0.495 1.98 0.495 4 1 C3.01 1 2.02 1 1 1 C1.6496875 2.2375 1.6496875 2.2375 2.3125 3.5 C7 13.22222222 7 13.22222222 7 18 C9.64 18 12.28 18 15 18 C15 18.66 15 19.32 15 20 C10.38 20.33 5.76 20.66 1 21 C1 20.01 1 19.02 1 18 C2.32 18 3.64 18 5 18 C4.02687548 12.12284005 2.85567331 8.65339882 -1 4 C-0.75 1.6875 -0.75 1.6875 0 0 Z " fill="#9D4C4B" transform="translate(608,352)"/>
<path d="M0 0 C3.48331435 3.01887244 4.79157144 5.56909529 6 10 C2.37 10 -1.26 10 -5 10 C-4.39816251 7.97954558 -3.72693904 5.97888961 -3 4 C-2.34 3.67 -1.68 3.34 -1 3 C-0.67 2.01 -0.34 1.02 0 0 Z " fill="#F8A9A2" transform="translate(263,612)"/>
<path d="M0 0 C0.45572917 2.01822917 0.91145833 4.03645833 1.3671875 6.0546875 C1.90474428 8.20719964 1.90474428 8.20719964 4 10 C3.6730244 12.61580479 3.17960932 14.64078137 2 17 C1.34 17 0.68 17 0 17 C-0.67031719 15.0429132 -1.33614683 13.08428887 -2 11.125 C-2.37125 10.03445313 -2.7425 8.94390625 -3.125 7.8203125 C-4 5 -4 5 -4 3 C-1.34615385 0 -1.34615385 0 0 0 Z " fill="#9B4B49" transform="translate(391,447)"/>
<path d="M0 0 C0.33 0 0.66 0 1 0 C1 3.96 1 7.92 1 12 C-6.8125 7.5078125 -6.8125 7.5078125 -9 6 C-9 5.34 -9 4.68 -9 4 C-8.360625 3.87625 -7.72125 3.7525 -7.0625 3.625 C-6.0415625 3.315625 -6.0415625 3.315625 -5 3 C-4.67 2.34 -4.34 1.68 -4 1 C-3.01 1.66 -2.02 2.32 -1 3 C-0.67 2.01 -0.34 1.02 0 0 Z " fill="#F5A59B" transform="translate(563,330)"/>
<path d="M0 0 C1.42911725 3.86533055 0.58866645 6.87043066 -0.3125 10.8125 C-0.59351563 12.04871094 -0.87453125 13.28492188 -1.1640625 14.55859375 C-2.01844884 18.07595059 -2.92995746 21.54293948 -4 25 C-4.99 25 -5.98 25 -7 25 C-4.95838673 16.5537319 -2.92608728 8.19304439 0 0 Z " fill="#F9766B" transform="translate(560,570)"/>
<path d="M0 0 C2.4375 0.1875 2.4375 0.1875 3.4375 1.1875 C3.625 3.625 3.625 3.625 3.4375 6.1875 C2.7775 6.8475 2.1175 7.5075 1.4375 8.1875 C-1.1875 7.8125 -1.1875 7.8125 -3.5625 7.1875 C-4.1875 4.8125 -4.1875 4.8125 -4.5625 2.1875 C-2.5625 0.1875 -2.5625 0.1875 0 0 Z " fill="#FBABA2" transform="translate(511.5625,477.8125)"/>
<path d="M0 0 C2.625 0.375 2.625 0.375 5 1 C5.625 3.375 5.625 3.375 6 6 C5.34 6.66 4.68 7.32 4 8 C1.375 7.625 1.375 7.625 -1 7 C-1.625 4.625 -1.625 4.625 -2 2 C-1.34 1.34 -0.68 0.68 0 0 Z " fill="#F9A197" transform="translate(276,404)"/>
<path d="M0 0 C2.625 0.375 2.625 0.375 5 1 C6.125 4.75 6.125 4.75 5 7 C3.02 7 1.04 7 -1 7 C-1.625 4.625 -1.625 4.625 -2 2 C-1.34 1.34 -0.68 0.68 0 0 Z " fill="#F7A99F" transform="translate(661,312)"/>
<path d="M0 0 C2.125 0.375 2.125 0.375 4 1 C4.38218767 2.65614657 4.71395102 4.32457024 5 6 C4 7 4 7 1.4375 7.0625 C0.2309375 7.0315625 0.2309375 7.0315625 -1 7 C-1.625 4.625 -1.625 4.625 -2 2 C-1.34 1.34 -0.68 0.68 0 0 Z " fill="#F8A99F" transform="translate(749,427)"/>
<path d="M0 0 C1.2065625 0.0309375 1.2065625 0.0309375 2.4375 0.0625 C3.0625 2.4375 3.0625 2.4375 3.4375 5.0625 C2.7775 5.7225 2.1175 6.3825 1.4375 7.0625 C-0.6875 6.6875 -0.6875 6.6875 -2.5625 6.0625 C-2.94468767 4.40635343 -3.27645102 2.73792976 -3.5625 1.0625 C-2.5625 0.0625 -2.5625 0.0625 0 0 Z " fill="#F6E6E1" transform="translate(691.5625,418.9375)"/>
<path d="M0 0 C1.67542976 0.28604898 3.34385343 0.61781233 5 1 C5.625 2.875 5.625 2.875 6 5 C5.34 5.66 4.68 6.32 4 7 C1.375 6.625 1.375 6.625 -1 6 C-1.042721 4.33388095 -1.04063832 2.66617115 -1 1 C-0.67 0.67 -0.34 0.34 0 0 Z " fill="#F8E7E2" transform="translate(676,419)"/>
<path d="M0 0 C1.67542976 0.28604898 3.34385343 0.61781233 5 1 C5.625 2.875 5.625 2.875 6 5 C5.34 5.66 4.68 6.32 4 7 C1.375 6.625 1.375 6.625 -1 6 C-1.042721 4.33388095 -1.04063832 2.66617115 -1 1 C-0.67 0.67 -0.34 0.34 0 0 Z " fill="#F9ACA4" transform="translate(304,345)"/>
<path d="M0 0 C1.67542976 0.28604898 3.34385343 0.61781233 5 1 C5 2.65 5 4.3 5 6 C2.625 6.625 2.625 6.625 0 7 C-0.66 6.34 -1.32 5.68 -2 5 C-1.46428571 1.46428571 -1.46428571 1.46428571 0 0 Z " fill="#F7ECE9" transform="translate(663,419)"/>
<path d="M0 0 C0.66 0 1.32 0 2 0 C1.67 4.29 1.34 8.58 1 13 C-0.65 13.33 -2.3 13.66 -4 14 C-4 13.34 -4 12.68 -4 12 C-3.01 12 -2.02 12 -1 12 C-1.01160156 11.21753906 -1.02320313 10.43507813 -1.03515625 9.62890625 C-1.04417969 8.61699219 -1.05320312 7.60507812 -1.0625 6.5625 C-1.07410156 5.55316406 -1.08570313 4.54382813 -1.09765625 3.50390625 C-1 1 -1 1 0 0 Z " fill="#F6A199" transform="translate(437,457)"/>
<path d="M0 0 C5.94 2.475 5.94 2.475 12 5 C10 7 10 7 7.125 7.4375 C4 7 4 7 1.625 4.625 C0 2 0 2 0 0 Z " fill="#873C3E" transform="translate(512,410)"/>
<path d="M0 0 C1.67542976 0.28604898 3.34385343 0.61781233 5 1 C4.67 2.98 4.34 4.96 4 7 C2.35 6.67 0.7 6.34 -1 6 C-1.042721 4.33388095 -1.04063832 2.66617115 -1 1 C-0.67 0.67 -0.34 0.34 0 0 Z " fill="#FBAFA7" transform="translate(470,349)"/>
<path d="M0 0 C1.65 0.33 3.3 0.66 5 1 C4.67 2.65 4.34 4.3 4 6 C2.35 5.67 0.7 5.34 -1 5 C-0.67 3.35 -0.34 1.7 0 0 Z " fill="#FBB1A9" transform="translate(577,395)"/>
<path d="M0 0 C1.79236067 0.47656412 3.58386897 0.95633498 5.375 1.4375 C6.37273438 1.70433594 7.37046875 1.97117187 8.3984375 2.24609375 C11 3 11 3 13 4 C13 4.66 13 5.32 13 6 C8.02693484 5.50269348 4.36200187 4.44697666 0 2 C0 1.34 0 0.68 0 0 Z " fill="#893D3D" transform="translate(514,404)"/>
<path d="M0 0 C0.99 0 1.98 0 3 0 C3 3.3 3 6.6 3 10 C2.01 10 1.02 10 0 10 C0 6.7 0 3.4 0 0 Z " fill="#F9A79C" transform="translate(616,323)"/>
<path d="M0 0 C0.66 0 1.32 0 2 0 C1.67 3.63 1.34 7.26 1 11 C1.99 11 2.98 11 4 11 C4 11.66 4 12.32 4 13 C2.35 12.67 0.7 12.34 -1 12 C-0.67 8.04 -0.34 4.08 0 0 Z " fill="#FA9289" transform="translate(584,486)"/>
<path d="M0 0 C-2.475 3.465 -2.475 3.465 -5 7 C-6.0625 5.1875 -6.0625 5.1875 -7 3 C-6.67 2.01 -6.34 1.02 -6 0 C-4 -1 -4 -1 0 0 Z " fill="#964446" transform="translate(629,490)"/>
<path d="M0 0 C1.32 0.66 2.64 1.32 4 2 C3.67 3.32 3.34 4.64 3 6 C1.35 5.67 -0.3 5.34 -2 5 C-1.125 1.125 -1.125 1.125 0 0 Z " fill="#FA9F94" transform="translate(276,532)"/>
<path d="M0 0 C0 0.33 0 0.66 0 1 C-2.12254855 1.38863565 -4.24816828 1.76053209 -6.375 2.125 C-8.15003906 2.43824219 -8.15003906 2.43824219 -9.9609375 2.7578125 C-10.96382812 2.83773437 -11.96671875 2.91765625 -13 3 C-13.66 2.34 -14.32 1.68 -15 1 C-9.69276568 -0.42705634 -5.46108889 -1.4002792 0 0 Z " fill="#F68179" transform="translate(684,626)"/>
<path d="M0 0 C3.96 1.32 7.92 2.64 12 4 C12 4.99 12 5.98 12 7 C10.1827669 6.41022253 8.37127957 5.80271547 6.5625 5.1875 C5.55316406 4.85105469 4.54382813 4.51460938 3.50390625 4.16796875 C2.67761719 3.78253906 1.85132813 3.39710938 1 3 C0.67 2.01 0.34 1.02 0 0 Z " fill="#8C4040" transform="translate(513,407)"/>
<path d="M0 0 C0 0.66 0 1.32 0 2 C-3.3 2.66 -6.6 3.32 -10 4 C-10 3.01 -10 2.02 -10 1 C-3.375 -1.125 -3.375 -1.125 0 0 Z " fill="#FA9C90" transform="translate(555,379)"/>
<path d="M0 0 C0.66 0 1.32 0 2 0 C2.45375 0.804375 2.9075 1.60875 3.375 2.4375 C4.73420995 5.15236193 4.73420995 5.15236193 7.1875 5.8125 C7.785625 5.874375 8.38375 5.93625 9 6 C9 6.66 9 7.32 9 8 C3.51219512 7.51219512 3.51219512 7.51219512 1.125 5.125 C0 3 0 3 0 0 Z " fill="#794C4B" transform="translate(421,469)"/>
<path d="M0 0 C0.33 0 0.66 0 1 0 C1.125 7.75 1.125 7.75 0 10 C-0.99 10 -1.98 10 -3 10 C-2.69201674 8.51988629 -2.378482 7.04092675 -2.0625 5.5625 C-1.88847656 4.73878906 -1.71445312 3.91507813 -1.53515625 3.06640625 C-1 1 -1 1 0 0 Z " fill="#FA6F62" transform="translate(556,585)"/>
<path d="M0 0 C2.0625 0.4375 2.0625 0.4375 4 1 C3.67 2.32 3.34 3.64 3 5 C3 4.01 3 3.02 3 2 C2.01 2 1.02 2 0 2 C0 2.66 0 3.32 0 4 C-1.65 4.33 -3.3 4.66 -5 5 C-5.33 4.01 -5.66 3.02 -6 2 C-4.7934375 1.7834375 -4.7934375 1.7834375 -3.5625 1.5625 C-1.07896294 1.25864751 -1.07896294 1.25864751 0 0 Z " fill="#AF5556" transform="translate(618,351)"/>
<path d="M0 0 C0 0.99 0 1.98 0 3 C-5.25714286 7 -5.25714286 7 -8 7 C-6.47663111 3.31852519 -4.31953005 0 0 0 Z " fill="#F99A8E" transform="translate(638,333)"/>
<path d="M0 0 C0.66 0 1.32 0 2 0 C1.44271087 3.34373475 0.64826111 6.03312999 -1 9 C-1.66 9 -2.32 9 -3 9 C-2.5020163 5.26512223 -2.12508244 3.18762365 0 0 Z " fill="#F99989" transform="translate(537,363)"/>
<path d="M0 0 C3 1 3 1 4.1875 3.375 C5 6 5 6 5 9 C4.34 9 3.68 9 3 9 C0 3.375 0 3.375 0 0 Z " fill="#FC9C8F" transform="translate(515,363)"/>
<path d="M0 0 C0.99 0.33 1.98 0.66 3 1 C2.67 2.32 2.34 3.64 2 5 C0.68 5 -0.64 5 -2 5 C-1.125 1.125 -1.125 1.125 0 0 Z " fill="#905152" transform="translate(443,458)"/>
<path d="M0 0 C3.82946843 1.45255699 5.12050295 3.42895561 7 7 C6.01 7 5.02 7 4 7 C0 2.65714286 0 2.65714286 0 0 Z " fill="#FB9387" transform="translate(596,330)"/>
<path d="M0 0 C0.33 0 0.66 0 1 0 C1 2.31 1 4.62 1 7 C-0.65 7.33 -2.3 7.66 -4 8 C-4 7.34 -4 6.68 -4 6 C-3.01 6 -2.02 6 -1 6 C-0.67 4.02 -0.34 2.04 0 0 Z " fill="#F88F89" transform="translate(437,463)"/>
<path d="M0 0 C0.33 0 0.66 0 1 0 C1.125 2.375 1.125 2.375 1 5 C-1 7 -1 7 -4.125 7.125 C-5.548125 7.063125 -5.548125 7.063125 -7 7 C-6.401875 6.773125 -5.80375 6.54625 -5.1875 6.3125 C-2.44106051 4.66463631 -1.52827786 2.76545517 0 0 Z " fill="#71302F" transform="translate(598,498)"/>
<path d="M0 0 C1.32 0 2.64 0 4 0 C4 1.65 4 3.3 4 5 C2.68 4.34 1.36 3.68 0 3 C0 2.01 0 1.02 0 0 Z " fill="#8A4647" transform="translate(590,484)"/>
<path d="M0 0 C0 0.33 0 0.66 0 1 C-1.36125 1.4021875 -1.36125 1.4021875 -2.75 1.8125 C-5.71471963 2.89576294 -7.6169754 3.98359457 -10 6 C-7.83322503 -0.036016 -6.28508493 -0.13663228 0 0 Z " fill="#EDAEA8" transform="translate(401,442)"/>
</svg>
